<svg width="1128" height="449" viewBox="0 0 1128 449" fill="none" xmlns="http://www.w3.org/2000/svg">
<g filter="url(#filter0_d_524_3)">
<path d="M140.799 224.389C140.799 163.907 134.996 114.877 127.838 114.877C120.679 114.877 114.876 163.907 114.876 224.389C114.876 284.871 120.68 333.902 127.838 333.902C134.996 333.902 140.799 284.871 140.799 224.389Z" fill="url(#paint0_linear_524_3)"/>
<path d="M127.838 332.954C127.996 332.953 128.228 332.89 128.546 332.617C128.871 332.338 129.237 331.881 129.629 331.203C130.414 329.846 131.203 327.784 131.97 325.041C133.501 319.569 134.891 311.607 136.062 301.715C138.402 281.945 139.852 254.605 139.852 224.389C139.852 194.173 138.402 166.834 136.062 147.064C134.891 137.172 133.501 129.209 131.97 123.738C131.203 120.995 130.414 118.932 129.629 117.576C129.237 116.898 128.871 116.44 128.546 116.162C128.228 115.889 127.996 115.825 127.838 115.825C127.68 115.825 127.449 115.888 127.13 116.162C126.805 116.44 126.439 116.898 126.046 117.576C125.262 118.932 124.473 120.995 123.706 123.738C122.174 129.209 120.784 137.172 119.614 147.064C117.274 166.834 115.825 194.173 115.825 224.389C115.825 254.605 117.274 281.945 119.614 301.715C120.785 311.607 122.175 319.569 123.706 325.041C124.473 327.784 125.262 329.846 126.046 331.203C126.439 331.881 126.805 332.338 127.13 332.617C127.449 332.89 127.68 332.954 127.838 332.954Z" stroke="url(#paint1_linear_524_3)" style="mix-blend-mode:plus-lighter" stroke-width="1.89561"/>
</g>
<g filter="url(#filter1_d_524_3)">
<path d="M481.077 170.684C481.077 170.684 493.795 180.003 493.795 224.374C493.795 268.746 481.077 277.621 481.077 277.621L377.186 290.566C377.886 289.569 378.5 288.426 379.046 287.201C380.654 283.594 382.054 278.503 383.213 272.357C385.538 260.027 386.965 243.064 386.965 224.374C386.965 205.685 385.538 188.722 383.213 176.392C382.054 170.246 380.654 165.155 379.046 161.547C378.408 160.117 377.686 158.799 376.833 157.695L481.077 170.684Z" fill="url(#paint2_linear_524_3)"/>
<path d="M480.683 171.589C480.755 171.653 480.848 171.738 480.959 171.848C481.274 172.157 481.741 172.66 482.31 173.408C483.447 174.902 484.997 177.379 486.557 181.245C489.679 188.979 492.847 202.275 492.847 224.375C492.847 246.475 489.679 259.657 486.559 267.278C485 271.086 483.452 273.505 482.318 274.957C481.751 275.682 481.285 276.168 480.972 276.464C480.86 276.571 480.765 276.652 480.694 276.712L379.028 289.381C379.343 288.804 379.637 288.204 379.912 287.587C381.563 283.882 382.98 278.708 384.144 272.533C386.483 260.13 387.913 243.104 387.913 224.375C387.913 205.644 386.483 188.62 384.144 176.216C382.98 170.041 381.563 164.867 379.912 161.162C379.561 160.375 379.179 159.612 378.761 158.89L480.683 171.589Z" stroke="url(#paint3_linear_524_3)" style="mix-blend-mode:plus-lighter" stroke-width="1.89561"/>
</g>
<g filter="url(#filter2_d_524_3)">
<path d="M388.526 224.391C388.526 261.226 382.689 291.087 375.489 291.087C368.289 291.087 362.452 261.226 362.452 224.391C362.452 187.556 368.289 157.695 375.489 157.695C382.689 157.695 388.526 187.556 388.526 224.391Z" fill="url(#paint4_linear_524_3)"/>
<path d="M375.489 158.643C376.036 158.643 376.684 158.922 377.431 159.705C378.179 160.487 378.946 161.694 379.704 163.333C381.217 166.608 382.604 171.407 383.778 177.412C386.122 189.405 387.579 206.016 387.579 224.391C387.579 242.766 386.122 259.376 383.778 271.37C382.604 277.374 381.217 282.173 379.704 285.448C378.946 287.088 378.179 288.294 377.431 289.077C376.684 289.859 376.036 290.139 375.489 290.139C374.942 290.139 374.294 289.859 373.546 289.077C372.799 288.294 372.033 287.087 371.275 285.448C369.762 282.173 368.374 277.374 367.201 271.37C364.856 259.376 363.4 242.766 363.4 224.391C363.4 206.016 364.856 189.405 367.201 177.412C368.374 171.407 369.762 166.608 371.275 163.333C372.033 161.694 372.799 160.487 373.546 159.705C374.294 158.922 374.942 158.643 375.489 158.643Z" stroke="url(#paint5_linear_524_3)" style="mix-blend-mode:plus-lighter" stroke-width="1.89561"/>
</g>
<g filter="url(#filter3_d_524_3)">
<path d="M628.344 171.763C627.49 172.626 626.765 173.654 626.126 174.771C624.516 177.587 623.114 181.563 621.953 186.361C619.624 195.987 618.194 209.231 618.194 223.823C618.194 238.414 619.624 251.658 621.953 261.285C623.114 266.083 624.516 270.058 626.126 272.875C626.674 273.831 627.289 274.722 627.99 275.5L564.17 269.303L500.352 275.5C501.052 274.722 501.667 273.831 502.214 272.875C503.825 270.058 505.227 266.083 506.388 261.285C508.717 251.658 510.147 238.414 510.147 223.823C510.147 209.231 508.717 195.987 506.388 186.361C505.227 181.563 503.825 177.587 502.214 174.771C501.576 173.655 500.852 172.626 499.998 171.763L564.17 177.995L628.344 171.763Z" fill="url(#paint6_linear_524_3)"/>
</g>
<g filter="url(#filter4_d_524_3)">
<path d="M615.679 224.39C615.679 253.456 621.516 277.018 628.716 277.018C635.916 277.018 641.753 253.456 641.753 224.39C641.753 195.325 635.916 171.763 628.716 171.763C621.516 171.763 615.679 195.325 615.679 224.39Z" fill="url(#paint7_linear_524_3)"/>
<path d="M628.716 172.711C627.463 172.711 625.992 173.761 624.459 176.377C622.965 178.928 621.587 182.683 620.417 187.405C618.082 196.834 616.626 209.911 616.626 224.39C616.626 238.869 618.082 251.946 620.417 261.375C621.587 266.098 622.965 269.852 624.459 272.403C625.992 275.02 627.462 276.07 628.716 276.07C629.97 276.07 631.441 275.02 632.973 272.403C634.467 269.852 635.845 266.097 637.015 261.375C639.351 251.946 640.805 238.869 640.805 224.39C640.805 209.911 639.351 196.834 637.015 187.405C635.845 182.683 634.467 178.928 632.973 176.377C631.441 173.761 629.97 172.711 628.716 172.711Z" stroke="url(#paint8_linear_524_3)" style="mix-blend-mode:plus-lighter" stroke-width="1.89561"/>
</g>
<g filter="url(#filter5_d_524_3)">
<path d="M512.126 224.391C512.126 195.326 506.289 171.764 499.089 171.764C491.889 171.764 486.052 195.326 486.052 224.391C486.052 253.456 491.889 277.018 499.089 277.018C506.289 277.018 512.126 253.456 512.126 224.391Z" fill="url(#paint9_linear_524_3)"/>
<path d="M499.089 276.07C500.343 276.07 501.813 275.02 503.346 272.404C504.84 269.853 506.218 266.098 507.388 261.376C509.724 251.947 511.179 238.87 511.179 224.391C511.179 209.912 509.724 196.835 507.388 187.406C506.218 182.684 504.84 178.929 503.346 176.378C501.813 173.762 500.343 172.711 499.089 172.711C497.835 172.711 496.365 173.762 494.832 176.378C493.338 178.929 491.96 182.684 490.79 187.406C488.454 196.835 487 209.912 487 224.391C487 238.87 488.454 251.947 490.79 261.376C491.96 266.098 493.338 269.853 494.832 272.404C496.365 275.02 497.835 276.07 499.089 276.07Z" stroke="url(#paint10_linear_524_3)" style="mix-blend-mode:plus-lighter" stroke-width="1.89561"/>
</g>
<g filter="url(#filter6_d_524_3)">
<path d="M358.778 293.308C358.778 293.308 371.519 281.356 371.519 224.44C371.519 167.524 358.778 156.141 358.778 156.141L254.702 139.537C255.402 140.815 256.017 142.281 256.564 143.852C258.175 148.479 259.578 155.01 260.739 162.893C263.068 178.708 264.497 200.467 264.497 224.44C264.497 248.413 263.068 270.172 260.739 285.987C259.578 293.87 258.175 300.402 256.564 305.028C255.926 306.863 255.202 308.553 254.347 309.97L358.778 293.308Z" fill="url(#paint11_linear_524_3)"/>
<path d="M358.307 292.424C358.379 292.342 358.472 292.233 358.583 292.093C358.904 291.69 359.378 291.037 359.955 290.067C361.107 288.127 362.671 284.923 364.245 279.933C367.393 269.948 370.571 252.832 370.571 224.44C370.571 196.047 367.392 179.076 364.246 169.236C362.673 164.318 361.11 161.187 359.96 159.303C359.385 158.361 358.913 157.731 358.594 157.344C358.484 157.211 358.391 157.107 358.32 157.029L256.364 140.762C256.759 141.644 257.124 142.576 257.459 143.541C259.099 148.25 260.512 154.85 261.676 162.755C264.014 178.629 265.445 200.436 265.445 224.44C265.445 248.445 264.014 270.252 261.676 286.125C260.512 294.031 259.099 300.63 257.459 305.34C257.045 306.53 256.59 307.674 256.082 308.735L358.307 292.424Z" stroke="url(#paint12_linear_524_3)" style="mix-blend-mode:plus-lighter" stroke-width="1.89561"/>
</g>
<g filter="url(#filter7_d_524_3)">
<path d="M265.799 224.391C265.799 177.196 259.962 138.936 252.762 138.936C245.562 138.936 239.725 177.196 239.725 224.391C239.725 271.586 245.562 309.845 252.762 309.845C259.962 309.845 265.799 271.586 265.799 224.391Z" fill="url(#paint13_linear_524_3)"/>
<path d="M252.762 308.896C253.211 308.896 253.844 308.595 254.63 307.542C255.398 306.512 256.179 304.932 256.945 302.808C258.474 298.569 259.868 292.382 261.044 284.673C263.394 269.269 264.852 247.956 264.852 224.391C264.852 200.826 263.394 179.512 261.044 164.108C259.868 156.399 258.474 150.212 256.945 145.974C256.179 143.849 255.398 142.269 254.63 141.239C253.844 140.186 253.211 139.884 252.762 139.884C252.312 139.884 251.68 140.186 250.895 141.239C250.126 142.269 249.346 143.849 248.579 145.974C247.05 150.212 245.657 156.399 244.48 164.108C242.13 179.512 240.673 200.826 240.673 224.391C240.673 247.956 242.13 269.269 244.48 284.673C245.657 292.382 247.05 298.569 248.579 302.808C249.346 304.933 250.126 306.512 250.895 307.542C251.68 308.595 252.312 308.896 252.762 308.896Z" stroke="url(#paint14_linear_524_3)" style="mix-blend-mode:plus-lighter" stroke-width="1.89561"/>
</g>
<g filter="url(#filter8_d_524_3)">
<path d="M235.232 311.978C235.232 311.978 248.085 296.77 248.085 224.354C248.085 151.938 235.232 137.454 235.232 137.454L130.234 116.328C130.941 117.955 131.561 119.819 132.113 121.818C133.738 127.705 135.153 136.015 136.324 146.045C138.674 166.168 140.116 193.852 140.116 224.354C140.117 254.856 138.674 282.54 136.325 302.663C135.153 312.693 133.738 321.003 132.113 326.89C131.469 329.224 130.739 331.374 129.876 333.177L235.232 311.978Z" fill="url(#paint15_linear_524_3)"/>
<path d="M234.687 311.121C234.763 311.012 234.863 310.866 234.982 310.677C235.311 310.155 235.795 309.312 236.382 308.066C237.557 305.573 239.145 301.469 240.739 295.092C243.928 282.335 247.137 260.511 247.137 224.354C247.137 188.197 243.928 166.555 240.74 153.981C239.146 147.696 237.56 143.685 236.387 141.262C235.801 140.051 235.318 139.238 234.991 138.737C234.873 138.556 234.773 138.417 234.698 138.314L131.763 117.603C132.223 118.845 132.644 120.178 133.027 121.566C134.671 127.522 136.093 135.888 137.266 145.935C139.621 166.104 141.064 193.827 141.064 224.354C141.064 254.881 139.621 282.604 137.266 302.773C136.093 312.82 134.671 321.186 133.027 327.142C132.562 328.825 132.046 330.429 131.465 331.891L234.687 311.121Z" stroke="url(#paint16_linear_524_3)" style="mix-blend-mode:plus-lighter" stroke-width="1.89561"/>
</g>
<g filter="url(#filter9_d_524_3)">
<path d="M645.962 170.684C645.962 170.684 633.244 180.003 633.244 224.374C633.244 268.746 645.962 277.621 645.962 277.621L749.853 290.566C749.153 289.569 748.54 288.426 747.993 287.201C746.385 283.594 744.985 278.503 743.826 272.357C741.502 260.027 740.074 243.064 740.074 224.374C740.074 205.685 741.502 188.722 743.826 176.392C744.985 170.246 746.385 165.155 747.993 161.547C748.631 160.117 749.353 158.799 750.207 157.695L645.962 170.684Z" fill="url(#paint17_linear_524_3)"/>
<path d="M646.356 171.589C646.284 171.653 646.191 171.738 646.08 171.848C645.765 172.157 645.298 172.66 644.729 173.408C643.592 174.902 642.042 177.379 640.482 181.245C637.36 188.979 634.192 202.275 634.192 224.375C634.192 246.475 637.36 259.657 640.48 267.278C642.039 271.086 643.587 273.505 644.721 274.957C645.288 275.682 645.754 276.168 646.067 276.464C646.179 276.571 646.274 276.652 646.345 276.712L748.011 289.381C747.696 288.804 747.402 288.204 747.127 287.587C745.476 283.882 744.059 278.708 742.895 272.533C740.556 260.13 739.126 243.104 739.126 224.375C739.126 205.644 740.556 188.62 742.895 176.216C744.059 170.041 745.476 164.867 747.127 161.162C747.478 160.375 747.86 159.612 748.278 158.89L646.356 171.589Z" stroke="url(#paint18_linear_524_3)" style="mix-blend-mode:plus-lighter" stroke-width="1.89561"/>
</g>
<g filter="url(#filter10_d_524_3)">
<path d="M738.512 224.391C738.512 261.226 744.349 291.087 751.55 291.087C758.75 291.087 764.587 261.226 764.587 224.391C764.587 187.556 758.75 157.695 751.55 157.695C744.349 157.695 738.512 187.556 738.512 224.391Z" fill="url(#paint19_linear_524_3)"/>
<path d="M751.55 158.643C751.003 158.643 750.355 158.922 749.607 159.705C748.86 160.487 748.093 161.694 747.335 163.333C745.822 166.608 744.434 171.407 743.261 177.412C740.916 189.405 739.46 206.016 739.46 224.391C739.46 242.766 740.916 259.376 743.261 271.37C744.434 277.374 745.822 282.173 747.335 285.448C748.093 287.088 748.86 288.294 749.607 289.077C750.355 289.859 751.003 290.139 751.55 290.139C752.097 290.139 752.745 289.859 753.492 289.077C754.24 288.294 755.006 287.087 755.764 285.448C757.277 282.173 758.664 277.374 759.838 271.37C762.182 259.376 763.639 242.766 763.639 224.391C763.639 206.016 762.182 189.405 759.838 177.412C758.664 171.407 757.277 166.608 755.764 163.333C755.006 161.694 754.24 160.487 753.492 159.705C752.745 158.922 752.097 158.643 751.55 158.643Z" stroke="url(#paint20_linear_524_3)" style="mix-blend-mode:plus-lighter" stroke-width="1.89561"/>
</g>
<g filter="url(#filter11_d_524_3)">
<path d="M768.966 155.473C768.966 155.473 756.225 167.425 756.225 224.341C756.225 281.257 768.966 292.64 768.966 292.64L873.042 309.245C872.342 307.966 871.727 306.501 871.18 304.929C869.569 300.302 868.166 293.771 867.005 285.888C864.676 270.073 863.247 248.314 863.247 224.341C863.247 200.368 864.676 178.609 867.005 162.794C868.166 154.911 869.569 148.38 871.18 143.753C871.819 141.918 872.542 140.228 873.397 138.811L768.966 155.473Z" fill="url(#paint21_linear_524_3)"/>
<path d="M769.437 156.357C769.365 156.439 769.272 156.548 769.161 156.688C768.84 157.091 768.366 157.745 767.79 158.714C766.637 160.654 765.073 163.858 763.5 168.848C760.351 178.833 757.173 195.949 757.173 224.341C757.173 252.734 760.352 269.705 763.499 279.545C765.071 284.463 766.634 287.594 767.784 289.478C768.359 290.42 768.831 291.051 769.15 291.437C769.26 291.571 769.353 291.674 769.424 291.752L871.38 308.019C870.985 307.138 870.62 306.205 870.285 305.241C868.645 300.531 867.232 293.931 866.068 286.026C863.73 270.152 862.299 248.346 862.299 224.341C862.299 200.337 863.73 178.529 866.068 162.656C867.232 154.751 868.645 148.151 870.285 143.441C870.699 142.251 871.154 141.107 871.663 140.046L769.437 156.357Z" stroke="url(#paint22_linear_524_3)" style="mix-blend-mode:plus-lighter" stroke-width="1.89561"/>
</g>
<g filter="url(#filter12_d_524_3)">
<path d="M861.946 224.391C861.946 271.586 867.783 309.845 874.983 309.845C882.183 309.845 888.02 271.586 888.02 224.391C888.02 177.196 882.183 138.937 874.983 138.937C867.783 138.937 861.946 177.196 861.946 224.391Z" fill="url(#paint23_linear_524_3)"/>
<path d="M874.983 139.885C874.534 139.885 873.9 140.186 873.115 141.239C872.347 142.269 871.566 143.849 870.799 145.974C869.27 150.212 867.877 156.399 866.701 164.108C864.351 179.512 862.893 200.826 862.893 224.391C862.893 247.956 864.351 269.269 866.701 284.673C867.877 292.382 869.27 298.569 870.799 302.808C871.566 304.932 872.347 306.512 873.115 307.542C873.9 308.595 874.534 308.897 874.983 308.897C875.432 308.897 876.065 308.595 876.85 307.542C877.618 306.512 878.399 304.933 879.166 302.808C880.694 298.569 882.088 292.382 883.264 284.673C885.614 269.269 887.072 247.956 887.072 224.391C887.072 200.826 885.614 179.512 883.264 164.108C882.088 156.399 880.694 150.212 879.166 145.974C878.399 143.849 877.618 142.269 876.85 141.239C876.065 140.186 875.432 139.885 874.983 139.885Z" stroke="url(#paint24_linear_524_3)" style="mix-blend-mode:plus-lighter" stroke-width="1.89561"/>
</g>
<g filter="url(#filter13_d_524_3)">
<path d="M892.707 136.802C892.707 136.802 879.853 152.01 879.853 224.426C879.853 296.843 892.707 311.326 892.707 311.326L997.704 332.453C996.997 330.826 996.377 328.961 995.825 326.962C994.2 321.075 992.785 312.765 991.614 302.735C989.264 282.613 987.822 254.928 987.822 224.426C987.822 193.924 989.264 166.24 991.614 146.118C992.785 136.087 994.2 127.777 995.825 121.891C996.47 119.557 997.2 117.406 998.062 115.603L892.707 136.802Z" fill="url(#paint25_linear_524_3)"/>
<path d="M893.251 137.66C893.175 137.769 893.075 137.915 892.957 138.103C892.627 138.625 892.143 139.468 891.556 140.714C890.382 143.207 888.794 147.311 887.2 153.688C884.011 166.445 880.801 188.269 880.801 224.426C880.801 260.584 884.01 282.225 887.199 294.799C888.792 301.084 890.379 305.096 891.551 307.518C892.137 308.729 892.62 309.542 892.948 310.043C893.066 310.224 893.165 310.363 893.241 310.466L996.175 331.177C995.715 329.935 995.295 328.602 994.912 327.214C993.267 321.258 991.846 312.892 990.672 302.845C988.317 282.676 986.875 254.953 986.875 224.426C986.875 193.899 988.317 166.176 990.672 146.007C991.846 135.96 993.267 127.594 994.912 121.638C995.376 119.956 995.892 118.351 996.473 116.889L893.251 137.66Z" stroke="url(#paint26_linear_524_3)" style="mix-blend-mode:plus-lighter" stroke-width="1.89561"/>
</g>
<g filter="url(#filter14_d_524_3)">
<path d="M986.728 224.391C986.728 284.873 992.531 333.903 999.689 333.903C1006.85 333.903 1012.65 284.873 1012.65 224.391C1012.65 163.908 1006.85 114.878 999.689 114.878C992.531 114.878 986.728 163.908 986.728 224.391Z" fill="url(#paint27_linear_524_3)"/>
<path d="M999.689 115.826C999.531 115.826 999.299 115.89 998.981 116.163C998.656 116.442 998.29 116.899 997.898 117.577C997.113 118.934 996.325 120.996 995.557 123.739C994.026 129.211 992.636 137.173 991.465 147.064C989.125 166.835 987.675 194.175 987.675 224.391C987.675 254.606 989.125 281.945 991.465 301.716C992.636 311.608 994.026 319.571 995.557 325.042C996.325 327.785 997.113 329.847 997.898 331.204C998.29 331.882 998.656 332.339 998.981 332.618C999.299 332.891 999.531 332.955 999.689 332.955C999.847 332.955 1000.08 332.891 1000.4 332.618C1000.72 332.339 1001.09 331.882 1001.48 331.204C1002.27 329.847 1003.05 327.785 1003.82 325.042C1005.35 319.571 1006.74 311.608 1007.91 301.716C1010.25 281.945 1011.7 254.606 1011.7 224.391C1011.7 194.175 1010.25 166.835 1007.91 147.064C1006.74 137.173 1005.35 129.211 1003.82 123.739C1003.05 120.996 1002.27 118.934 1001.48 117.577C1001.09 116.899 1000.72 116.442 1000.4 116.163C1000.08 115.89 999.847 115.826 999.689 115.826Z" stroke="url(#paint28_linear_524_3)" style="mix-blend-mode:plus-lighter" stroke-width="1.89561"/>
</g>
<defs>
<filter id="filter0_d_524_3" x="-0.000236511" y="-0.000236511" width="255.676" height="448.779" filterUnits="userSpaceOnUse" color-interpolation-filters="sRGB">
<feFlood flood-opacity="0" result="BackgroundImageFix"/>
<feColorMatrix in="SourceAlpha" type="matrix" values="0 0 0 0 0 0 0 0 0 0 0 0 0 0 0 0 0 0 127 0" result="hardAlpha"/>
<feOffset/>
<feGaussianBlur stdDeviation="57.4384"/>
<feColorMatrix type="matrix" values="0 0 0 0 1 0 0 0 0 0.0662185 0 0 0 0 0.0662185 0 0 0 0.6 0"/>
<feBlend mode="normal" in2="BackgroundImageFix" result="effect1_dropShadow_524_3"/>
<feBlend mode="normal" in="SourceGraphic" in2="effect1_dropShadow_524_3" result="shape"/>
</filter>
<filter id="filter1_d_524_3" x="261.956" y="42.8181" width="346.716" height="362.624" filterUnits="userSpaceOnUse" color-interpolation-filters="sRGB">
<feFlood flood-opacity="0" result="BackgroundImageFix"/>
<feColorMatrix in="SourceAlpha" type="matrix" values="0 0 0 0 0 0 0 0 0 0 0 0 0 0 0 0 0 0 127 0" result="hardAlpha"/>
<feOffset/>
<feGaussianBlur stdDeviation="57.4384"/>
<feColorMatrix type="matrix" values="0 0 0 0 1 0 0 0 0 0.0662185 0 0 0 0 0.0662185 0 0 0 0.6 0"/>
<feBlend mode="normal" in2="BackgroundImageFix" result="effect1_dropShadow_524_3"/>
<feBlend mode="normal" in="SourceGraphic" in2="effect1_dropShadow_524_3" result="shape"/>
</filter>
<filter id="filter2_d_524_3" x="247.575" y="42.8181" width="255.828" height="363.145" filterUnits="userSpaceOnUse" color-interpolation-filters="sRGB">
<feFlood flood-opacity="0" result="BackgroundImageFix"/>
<feColorMatrix in="SourceAlpha" type="matrix" values="0 0 0 0 0 0 0 0 0 0 0 0 0 0 0 0 0 0 127 0" result="hardAlpha"/>
<feOffset/>
<feGaussianBlur stdDeviation="57.4384"/>
<feColorMatrix type="matrix" values="0 0 0 0 1 0 0 0 0 0.0662185 0 0 0 0 0.0662185 0 0 0 0.6 0"/>
<feBlend mode="normal" in2="BackgroundImageFix" result="effect1_dropShadow_524_3"/>
<feBlend mode="normal" in="SourceGraphic" in2="effect1_dropShadow_524_3" result="shape"/>
</filter>
<filter id="filter3_d_524_3" x="385.121" y="56.8865" width="358.1" height="333.491" filterUnits="userSpaceOnUse" color-interpolation-filters="sRGB">
<feFlood flood-opacity="0" result="BackgroundImageFix"/>
<feColorMatrix in="SourceAlpha" type="matrix" values="0 0 0 0 0 0 0 0 0 0 0 0 0 0 0 0 0 0 127 0" result="hardAlpha"/>
<feOffset/>
<feGaussianBlur stdDeviation="57.4384"/>
<feColorMatrix type="matrix" values="0 0 0 0 1 0 0 0 0 0.0662185 0 0 0 0 0.0662185 0 0 0 0.6 0"/>
<feBlend mode="normal" in2="BackgroundImageFix" result="effect1_dropShadow_524_3"/>
<feBlend mode="normal" in="SourceGraphic" in2="effect1_dropShadow_524_3" result="shape"/>
</filter>
<filter id="filter4_d_524_3" x="500.802" y="56.8865" width="255.828" height="335.008" filterUnits="userSpaceOnUse" color-interpolation-filters="sRGB">
<feFlood flood-opacity="0" result="BackgroundImageFix"/>
<feColorMatrix in="SourceAlpha" type="matrix" values="0 0 0 0 0 0 0 0 0 0 0 0 0 0 0 0 0 0 127 0" result="hardAlpha"/>
<feOffset/>
<feGaussianBlur stdDeviation="57.4384"/>
<feColorMatrix type="matrix" values="0 0 0 0 1 0 0 0 0 0.0662185 0 0 0 0 0.0662185 0 0 0 0.6 0"/>
<feBlend mode="normal" in2="BackgroundImageFix" result="effect1_dropShadow_524_3"/>
<feBlend mode="normal" in="SourceGraphic" in2="effect1_dropShadow_524_3" result="shape"/>
</filter>
<filter id="filter5_d_524_3" x="371.175" y="56.887" width="255.828" height="335.008" filterUnits="userSpaceOnUse" color-interpolation-filters="sRGB">
<feFlood flood-opacity="0" result="BackgroundImageFix"/>
<feColorMatrix in="SourceAlpha" type="matrix" values="0 0 0 0 0 0 0 0 0 0 0 0 0 0 0 0 0 0 127 0" result="hardAlpha"/>
<feOffset/>
<feGaussianBlur stdDeviation="57.4384"/>
<feColorMatrix type="matrix" values="0 0 0 0 1 0 0 0 0 0.0662185 0 0 0 0 0.0662185 0 0 0 0.6 0"/>
<feBlend mode="normal" in2="BackgroundImageFix" result="effect1_dropShadow_524_3"/>
<feBlend mode="normal" in="SourceGraphic" in2="effect1_dropShadow_524_3" result="shape"/>
</filter>
<filter id="filter6_d_524_3" x="139.47" y="24.6599" width="346.925" height="400.187" filterUnits="userSpaceOnUse" color-interpolation-filters="sRGB">
<feFlood flood-opacity="0" result="BackgroundImageFix"/>
<feColorMatrix in="SourceAlpha" type="matrix" values="0 0 0 0 0 0 0 0 0 0 0 0 0 0 0 0 0 0 127 0" result="hardAlpha"/>
<feOffset/>
<feGaussianBlur stdDeviation="57.4384"/>
<feColorMatrix type="matrix" values="0 0 0 0 1 0 0 0 0 0.0662185 0 0 0 0 0.0662185 0 0 0 0.6 0"/>
<feBlend mode="normal" in2="BackgroundImageFix" result="effect1_dropShadow_524_3"/>
<feBlend mode="normal" in="SourceGraphic" in2="effect1_dropShadow_524_3" result="shape"/>
</filter>
<filter id="filter7_d_524_3" x="124.848" y="24.0598" width="255.828" height="400.662" filterUnits="userSpaceOnUse" color-interpolation-filters="sRGB">
<feFlood flood-opacity="0" result="BackgroundImageFix"/>
<feColorMatrix in="SourceAlpha" type="matrix" values="0 0 0 0 0 0 0 0 0 0 0 0 0 0 0 0 0 0 127 0" result="hardAlpha"/>
<feOffset/>
<feGaussianBlur stdDeviation="57.4384"/>
<feColorMatrix type="matrix" values="0 0 0 0 1 0 0 0 0 0.0662185 0 0 0 0 0.0662185 0 0 0 0.6 0"/>
<feBlend mode="normal" in2="BackgroundImageFix" result="effect1_dropShadow_524_3"/>
<feBlend mode="normal" in="SourceGraphic" in2="effect1_dropShadow_524_3" result="shape"/>
</filter>
<filter id="filter8_d_524_3" x="14.9998" y="1.45094" width="347.962" height="446.603" filterUnits="userSpaceOnUse" color-interpolation-filters="sRGB">
<feFlood flood-opacity="0" result="BackgroundImageFix"/>
<feColorMatrix in="SourceAlpha" type="matrix" values="0 0 0 0 0 0 0 0 0 0 0 0 0 0 0 0 0 0 127 0" result="hardAlpha"/>
<feOffset/>
<feGaussianBlur stdDeviation="57.4384"/>
<feColorMatrix type="matrix" values="0 0 0 0 1 0 0 0 0 0.0662185 0 0 0 0 0.0662185 0 0 0 0.6 0"/>
<feBlend mode="normal" in2="BackgroundImageFix" result="effect1_dropShadow_524_3"/>
<feBlend mode="normal" in="SourceGraphic" in2="effect1_dropShadow_524_3" result="shape"/>
</filter>
<filter id="filter9_d_524_3" x="518.367" y="42.8181" width="346.716" height="362.624" filterUnits="userSpaceOnUse" color-interpolation-filters="sRGB">
<feFlood flood-opacity="0" result="BackgroundImageFix"/>
<feColorMatrix in="SourceAlpha" type="matrix" values="0 0 0 0 0 0 0 0 0 0 0 0 0 0 0 0 0 0 127 0" result="hardAlpha"/>
<feOffset/>
<feGaussianBlur stdDeviation="57.4384"/>
<feColorMatrix type="matrix" values="0 0 0 0 1 0 0 0 0 0.0662185 0 0 0 0 0.0662185 0 0 0 0.6 0"/>
<feBlend mode="normal" in2="BackgroundImageFix" result="effect1_dropShadow_524_3"/>
<feBlend mode="normal" in="SourceGraphic" in2="effect1_dropShadow_524_3" result="shape"/>
</filter>
<filter id="filter10_d_524_3" x="623.636" y="42.8181" width="255.828" height="363.145" filterUnits="userSpaceOnUse" color-interpolation-filters="sRGB">
<feFlood flood-opacity="0" result="BackgroundImageFix"/>
<feColorMatrix in="SourceAlpha" type="matrix" values="0 0 0 0 0 0 0 0 0 0 0 0 0 0 0 0 0 0 127 0" result="hardAlpha"/>
<feOffset/>
<feGaussianBlur stdDeviation="57.4384"/>
<feColorMatrix type="matrix" values="0 0 0 0 1 0 0 0 0 0.0662185 0 0 0 0 0.0662185 0 0 0 0.6 0"/>
<feBlend mode="normal" in2="BackgroundImageFix" result="effect1_dropShadow_524_3"/>
<feBlend mode="normal" in="SourceGraphic" in2="effect1_dropShadow_524_3" result="shape"/>
</filter>
<filter id="filter11_d_524_3" x="641.348" y="23.9343" width="346.925" height="400.187" filterUnits="userSpaceOnUse" color-interpolation-filters="sRGB">
<feFlood flood-opacity="0" result="BackgroundImageFix"/>
<feColorMatrix in="SourceAlpha" type="matrix" values="0 0 0 0 0 0 0 0 0 0 0 0 0 0 0 0 0 0 127 0" result="hardAlpha"/>
<feOffset/>
<feGaussianBlur stdDeviation="57.4384"/>
<feColorMatrix type="matrix" values="0 0 0 0 1 0 0 0 0 0.0662185 0 0 0 0 0.0662185 0 0 0 0.6 0"/>
<feBlend mode="normal" in2="BackgroundImageFix" result="effect1_dropShadow_524_3"/>
<feBlend mode="normal" in="SourceGraphic" in2="effect1_dropShadow_524_3" result="shape"/>
</filter>
<filter id="filter12_d_524_3" x="747.069" y="24.0598" width="255.828" height="400.662" filterUnits="userSpaceOnUse" color-interpolation-filters="sRGB">
<feFlood flood-opacity="0" result="BackgroundImageFix"/>
<feColorMatrix in="SourceAlpha" type="matrix" values="0 0 0 0 0 0 0 0 0 0 0 0 0 0 0 0 0 0 127 0" result="hardAlpha"/>
<feOffset/>
<feGaussianBlur stdDeviation="57.4384"/>
<feColorMatrix type="matrix" values="0 0 0 0 1 0 0 0 0 0.0662185 0 0 0 0 0.0662185 0 0 0 0.6 0"/>
<feBlend mode="normal" in2="BackgroundImageFix" result="effect1_dropShadow_524_3"/>
<feBlend mode="normal" in="SourceGraphic" in2="effect1_dropShadow_524_3" result="shape"/>
</filter>
<filter id="filter13_d_524_3" x="764.977" y="0.726326" width="347.962" height="446.603" filterUnits="userSpaceOnUse" color-interpolation-filters="sRGB">
<feFlood flood-opacity="0" result="BackgroundImageFix"/>
<feColorMatrix in="SourceAlpha" type="matrix" values="0 0 0 0 0 0 0 0 0 0 0 0 0 0 0 0 0 0 127 0" result="hardAlpha"/>
<feOffset/>
<feGaussianBlur stdDeviation="57.4384"/>
<feColorMatrix type="matrix" values="0 0 0 0 1 0 0 0 0 0.0662185 0 0 0 0 0.0662185 0 0 0 0.6 0"/>
<feBlend mode="normal" in2="BackgroundImageFix" result="effect1_dropShadow_524_3"/>
<feBlend mode="normal" in="SourceGraphic" in2="effect1_dropShadow_524_3" result="shape"/>
</filter>
<filter id="filter14_d_524_3" x="871.851" y="0.00122833" width="255.676" height="448.779" filterUnits="userSpaceOnUse" color-interpolation-filters="sRGB">
<feFlood flood-opacity="0" result="BackgroundImageFix"/>
<feColorMatrix in="SourceAlpha" type="matrix" values="0 0 0 0 0 0 0 0 0 0 0 0 0 0 0 0 0 0 127 0" result="hardAlpha"/>
<feOffset/>
<feGaussianBlur stdDeviation="57.4384"/>
<feColorMatrix type="matrix" values="0 0 0 0 1 0 0 0 0 0.0662185 0 0 0 0 0.0662185 0 0 0 0.6 0"/>
<feBlend mode="normal" in2="BackgroundImageFix" result="effect1_dropShadow_524_3"/>
<feBlend mode="normal" in="SourceGraphic" in2="effect1_dropShadow_524_3" result="shape"/>
</filter>
<linearGradient id="paint0_linear_524_3" x1="140.799" y1="333.902" x2="109.62" y2="333.151" gradientUnits="userSpaceOnUse">
<stop stop-color="#FF0000" stop-opacity="0.5"/>
<stop offset="1" stop-color="#F83535" stop-opacity="0.3"/>
</linearGradient>
<linearGradient id="paint1_linear_524_3" x1="140.782" y1="333.927" x2="81.9431" y2="324.684" gradientUnits="userSpaceOnUse">
<stop stop-color="#E50914"/>
<stop offset="1" stop-color="#FF7F86" stop-opacity="0"/>
</linearGradient>
<linearGradient id="paint2_linear_524_3" x1="493.795" y1="157.695" x2="357.409" y2="182.124" gradientUnits="userSpaceOnUse">
<stop stop-color="#FF0000" stop-opacity="0.5"/>
<stop offset="1" stop-color="#F83535" stop-opacity="0.3"/>
</linearGradient>
<linearGradient id="paint3_linear_524_3" x1="493.718" y1="157.68" x2="378.69" y2="292.065" gradientUnits="userSpaceOnUse">
<stop stop-color="#E50914"/>
<stop offset="1" stop-color="#FF7F86" stop-opacity="0"/>
</linearGradient>
<linearGradient id="paint4_linear_524_3" x1="388.526" y1="157.695" x2="357.196" y2="158.941" gradientUnits="userSpaceOnUse">
<stop stop-color="#FF0000" stop-opacity="0.5"/>
<stop offset="1" stop-color="#F83535" stop-opacity="0.3"/>
</linearGradient>
<linearGradient id="paint5_linear_524_3" x1="388.509" y1="157.68" x2="331.69" y2="172.42" gradientUnits="userSpaceOnUse">
<stop stop-color="#E50914"/>
<stop offset="1" stop-color="#FF7F86" stop-opacity="0"/>
</linearGradient>
<linearGradient id="paint6_linear_524_3" x1="617.169" y1="171.763" x2="483.23" y2="202.547" gradientUnits="userSpaceOnUse">
<stop stop-color="#FF0000" stop-opacity="0.5"/>
<stop offset="1" stop-color="#F83535" stop-opacity="0.3"/>
</linearGradient>
<linearGradient id="paint7_linear_524_3" x1="615.679" y1="171.763" x2="646.98" y2="173.341" gradientUnits="userSpaceOnUse">
<stop stop-color="#FF0000" stop-opacity="0.5"/>
<stop offset="1" stop-color="#F83535" stop-opacity="0.3"/>
</linearGradient>
<linearGradient id="paint8_linear_524_3" x1="615.696" y1="171.751" x2="670.424" y2="189.745" gradientUnits="userSpaceOnUse">
<stop stop-color="#E50914"/>
<stop offset="1" stop-color="#FF7F86" stop-opacity="0"/>
</linearGradient>
<linearGradient id="paint9_linear_524_3" x1="512.126" y1="277.018" x2="480.826" y2="275.44" gradientUnits="userSpaceOnUse">
<stop stop-color="#FF0000" stop-opacity="0.5"/>
<stop offset="1" stop-color="#F83535" stop-opacity="0.3"/>
</linearGradient>
<linearGradient id="paint10_linear_524_3" x1="512.109" y1="277.03" x2="457.382" y2="259.037" gradientUnits="userSpaceOnUse">
<stop stop-color="#E50914"/>
<stop offset="1" stop-color="#FF7F86" stop-opacity="0"/>
</linearGradient>
<linearGradient id="paint11_linear_524_3" x1="371.519" y1="309.97" x2="233.212" y2="290.622" gradientUnits="userSpaceOnUse">
<stop stop-color="#FF0000" stop-opacity="0.5"/>
<stop offset="1" stop-color="#F83535" stop-opacity="0.3"/>
</linearGradient>
<linearGradient id="paint12_linear_524_3" x1="371.442" y1="309.99" x2="222.732" y2="174.302" gradientUnits="userSpaceOnUse">
<stop stop-color="#E50914"/>
<stop offset="1" stop-color="#FF7F86" stop-opacity="0"/>
</linearGradient>
<linearGradient id="paint13_linear_524_3" x1="265.799" y1="309.845" x2="234.449" y2="308.872" gradientUnits="userSpaceOnUse">
<stop stop-color="#FF0000" stop-opacity="0.5"/>
<stop offset="1" stop-color="#F83535" stop-opacity="0.3"/>
</linearGradient>
<linearGradient id="paint14_linear_524_3" x1="265.782" y1="309.864" x2="207.527" y2="298.069" gradientUnits="userSpaceOnUse">
<stop stop-color="#E50914"/>
<stop offset="1" stop-color="#FF7F86" stop-opacity="0"/>
</linearGradient>
<linearGradient id="paint15_linear_524_3" x1="248.085" y1="333.177" x2="107.552" y2="317.589" gradientUnits="userSpaceOnUse">
<stop stop-color="#FF0000" stop-opacity="0.5"/>
<stop offset="1" stop-color="#F83535" stop-opacity="0.3"/>
</linearGradient>
<linearGradient id="paint16_linear_524_3" x1="248.007" y1="333.202" x2="67.54" y2="202.638" gradientUnits="userSpaceOnUse">
<stop stop-color="#E50914"/>
<stop offset="1" stop-color="#FF7F86" stop-opacity="0"/>
</linearGradient>
<linearGradient id="paint17_linear_524_3" x1="633.244" y1="157.695" x2="769.63" y2="182.124" gradientUnits="userSpaceOnUse">
<stop stop-color="#FF0000" stop-opacity="0.5"/>
<stop offset="1" stop-color="#F83535" stop-opacity="0.3"/>
</linearGradient>
<linearGradient id="paint18_linear_524_3" x1="633.321" y1="157.68" x2="748.349" y2="292.065" gradientUnits="userSpaceOnUse">
<stop stop-color="#E50914"/>
<stop offset="1" stop-color="#FF7F86" stop-opacity="0"/>
</linearGradient>
<linearGradient id="paint19_linear_524_3" x1="738.512" y1="157.695" x2="769.843" y2="158.941" gradientUnits="userSpaceOnUse">
<stop stop-color="#FF0000" stop-opacity="0.5"/>
<stop offset="1" stop-color="#F83535" stop-opacity="0.3"/>
</linearGradient>
<linearGradient id="paint20_linear_524_3" x1="738.53" y1="157.68" x2="795.349" y2="172.42" gradientUnits="userSpaceOnUse">
<stop stop-color="#E50914"/>
<stop offset="1" stop-color="#FF7F86" stop-opacity="0"/>
</linearGradient>
<linearGradient id="paint21_linear_524_3" x1="756.225" y1="138.811" x2="894.533" y2="158.159" gradientUnits="userSpaceOnUse">
<stop stop-color="#FF0000" stop-opacity="0.5"/>
<stop offset="1" stop-color="#F83535" stop-opacity="0.3"/>
</linearGradient>
<linearGradient id="paint22_linear_524_3" x1="756.302" y1="138.792" x2="905.012" y2="274.479" gradientUnits="userSpaceOnUse">
<stop stop-color="#E50914"/>
<stop offset="1" stop-color="#FF7F86" stop-opacity="0"/>
</linearGradient>
<linearGradient id="paint23_linear_524_3" x1="861.946" y1="138.937" x2="893.295" y2="139.91" gradientUnits="userSpaceOnUse">
<stop stop-color="#FF0000" stop-opacity="0.5"/>
<stop offset="1" stop-color="#F83535" stop-opacity="0.3"/>
</linearGradient>
<linearGradient id="paint24_linear_524_3" x1="861.963" y1="138.917" x2="920.218" y2="150.713" gradientUnits="userSpaceOnUse">
<stop stop-color="#E50914"/>
<stop offset="1" stop-color="#FF7F86" stop-opacity="0"/>
</linearGradient>
<linearGradient id="paint25_linear_524_3" x1="879.853" y1="115.603" x2="1020.39" y2="131.191" gradientUnits="userSpaceOnUse">
<stop stop-color="#FF0000" stop-opacity="0.5"/>
<stop offset="1" stop-color="#F83535" stop-opacity="0.3"/>
</linearGradient>
<linearGradient id="paint26_linear_524_3" x1="879.931" y1="115.578" x2="1060.4" y2="246.142" gradientUnits="userSpaceOnUse">
<stop stop-color="#E50914"/>
<stop offset="1" stop-color="#FF7F86" stop-opacity="0"/>
</linearGradient>
<linearGradient id="paint27_linear_524_3" x1="986.728" y1="114.878" x2="1017.91" y2="115.629" gradientUnits="userSpaceOnUse">
<stop stop-color="#FF0000" stop-opacity="0.5"/>
<stop offset="1" stop-color="#F83535" stop-opacity="0.3"/>
</linearGradient>
<linearGradient id="paint28_linear_524_3" x1="986.745" y1="114.853" x2="1045.58" y2="124.095" gradientUnits="userSpaceOnUse">
<stop stop-color="#E50914"/>
<stop offset="1" stop-color="#FF7F86" stop-opacity="0"/>
</linearGradient>
</defs>
</svg>
