<svg width="1317" height="508" viewBox="0 0 1317 508" fill="none" xmlns="http://www.w3.org/2000/svg">
<g filter="url(#filter0_d_515_2)">
<path d="M676.771 201.873C676.518 202.735 676.304 203.764 676.115 204.88C673.772 207.376 670.164 212.417 669.272 216.876C667.272 226.876 665.772 237.285 665.772 251.876C665.772 266.468 667.272 282.876 670.272 292.876C670.616 297.675 674.401 300.06 674.878 302.876C675.04 303.833 676.459 304.832 676.666 305.61L657.168 299.217C648.176 301.98 637.492 305.253 637.778 305.115C638.27 304.876 640.61 304.333 640.772 303.376C641.188 300.918 644.805 298.407 645.947 294.618L650.175 260.228C650.236 258.797 650.272 257.346 650.272 255.876C650.384 255.033 650.472 254.189 650.54 253.344L646.694 219.538C646.501 218.243 646.354 217.019 646.272 215.876C646.264 215.766 646.251 215.656 646.24 215.546L646.219 215.365C645.632 210.801 641.732 207.092 641.272 204.376C641.083 203.26 638.554 202.739 638.301 201.876L657.53 208.18L676.771 201.873Z" fill="url(#paint0_linear_515_2)"/>
</g>
<g filter="url(#filter1_d_515_2)">
<path d="M1017.77 253.877C1017.77 314.359 1023.57 363.39 1030.73 363.39C1037.89 363.39 1043.69 314.359 1043.69 253.877C1043.69 193.395 1037.89 144.365 1030.73 144.365C1023.57 144.365 1017.77 193.395 1017.77 253.877Z" fill="url(#paint1_linear_515_2)"/>
<path d="M1030.73 145.313C1030.57 145.313 1030.34 145.377 1030.02 145.65C1029.7 145.929 1029.33 146.386 1028.94 147.064C1028.15 148.421 1027.36 150.483 1026.6 153.226C1025.07 158.697 1023.68 166.66 1022.5 176.551C1020.16 196.322 1018.71 223.662 1018.71 253.877C1018.71 284.093 1020.16 311.432 1022.5 331.203C1023.68 341.094 1025.07 349.057 1026.6 354.529C1027.36 357.272 1028.15 359.334 1028.94 360.691C1029.33 361.369 1029.7 361.826 1030.02 362.105C1030.34 362.378 1030.57 362.442 1030.73 362.442C1030.89 362.442 1031.12 362.378 1031.44 362.105C1031.76 361.826 1032.13 361.369 1032.52 360.691C1033.3 359.334 1034.09 357.272 1034.86 354.529C1036.39 349.057 1037.78 341.094 1038.95 331.203C1041.29 311.432 1042.74 284.093 1042.74 253.877C1042.74 223.662 1041.29 196.322 1038.95 176.551C1037.78 166.66 1036.39 158.697 1034.86 153.226C1034.09 150.483 1033.3 148.421 1032.52 147.064C1032.13 146.386 1031.76 145.929 1031.44 145.65C1031.12 145.377 1030.89 145.313 1030.73 145.313Z" stroke="url(#paint2_linear_515_2)" style="mix-blend-mode:plus-lighter" stroke-width="1.89561"/>
</g>
<g filter="url(#filter2_d_515_2)">
<path d="M1168.59 253.876C1168.59 330.644 1175.97 392.876 1185.09 392.876C1194.2 392.876 1201.59 330.644 1201.59 253.876C1201.59 177.109 1194.2 114.876 1185.09 114.876C1175.97 114.876 1168.59 177.109 1168.59 253.876Z" fill="url(#paint3_linear_515_2)"/>
<path d="M1185.09 115.825C1184.81 115.825 1184.45 115.94 1184.02 116.314C1183.57 116.694 1183.09 117.302 1182.58 118.176C1181.57 119.926 1180.56 122.567 1179.58 126.056C1177.62 133.02 1175.85 143.141 1174.36 155.701C1171.38 180.807 1169.53 215.518 1169.53 253.876C1169.53 292.235 1171.38 326.946 1174.36 352.052C1175.85 364.612 1177.62 374.733 1179.58 381.697C1180.56 385.186 1181.57 387.827 1182.58 389.577C1183.09 390.451 1183.57 391.059 1184.02 391.439C1184.45 391.813 1184.81 391.928 1185.09 391.928C1185.37 391.928 1185.72 391.813 1186.16 391.439C1186.6 391.059 1187.08 390.451 1187.59 389.577C1188.61 387.827 1189.62 385.186 1190.6 381.697C1192.55 374.733 1194.32 364.612 1195.81 352.052C1198.79 326.946 1200.64 292.235 1200.64 253.876C1200.64 215.518 1198.79 180.807 1195.81 155.701C1194.32 143.141 1192.55 133.02 1190.6 126.056C1189.62 122.567 1188.61 119.926 1187.59 118.176C1187.08 117.302 1186.6 116.694 1186.16 116.314C1185.72 115.94 1185.37 115.825 1185.09 115.825Z" stroke="url(#paint4_linear_515_2)" style="mix-blend-mode:plus-lighter" stroke-width="1.89561"/>
</g>
<g filter="url(#filter3_d_515_2)">
<path d="M677.489 307.58C677.489 307.58 664.771 298.262 664.771 253.89C664.771 209.518 677.489 200.644 677.489 200.644L781.38 187.699C780.681 188.696 780.067 189.838 779.521 191.063C777.913 194.67 776.513 199.762 775.354 205.908C773.029 218.238 771.602 235.201 771.602 253.89C771.602 272.58 773.029 289.543 775.354 301.873C776.513 308.018 777.913 313.11 779.521 316.717C780.158 318.147 780.881 319.465 781.734 320.57L677.489 307.58Z" fill="url(#paint5_linear_515_2)"/>
<path d="M677.883 306.675C677.812 306.612 677.719 306.526 677.607 306.416C677.292 306.107 676.825 305.604 676.256 304.857C675.119 303.362 673.57 300.886 672.009 297.02C668.887 289.285 665.719 275.99 665.719 253.89C665.719 231.79 668.887 218.608 672.007 210.987C673.567 207.178 675.114 204.759 676.249 203.308C676.816 202.582 677.281 202.097 677.594 201.8C677.707 201.694 677.801 201.613 677.873 201.552L779.539 188.883C779.224 189.46 778.93 190.061 778.655 190.677C777.003 194.382 775.587 199.557 774.422 205.732C772.084 218.135 770.654 235.16 770.654 253.89C770.654 272.62 772.084 289.645 774.422 302.048C775.587 308.223 777.003 313.398 778.655 317.103C779.006 317.89 779.387 318.653 779.805 319.375L677.883 306.675Z" stroke="url(#paint6_linear_515_2)" style="mix-blend-mode:plus-lighter" stroke-width="1.89561"/>
</g>
<g filter="url(#filter4_d_515_2)">
<path d="M770.04 253.874C770.04 217.039 775.877 187.178 783.078 187.178C790.278 187.178 796.115 217.039 796.115 253.874C796.115 290.709 790.278 320.57 783.078 320.57C775.877 320.57 770.04 290.709 770.04 253.874Z" fill="url(#paint7_linear_515_2)"/>
<path d="M783.078 319.622C782.53 319.622 781.883 319.342 781.135 318.56C780.388 317.777 779.621 316.571 778.863 314.931C777.349 311.657 775.962 306.858 774.789 300.853C772.444 288.86 770.988 272.249 770.988 253.874C770.988 235.498 772.444 218.888 774.789 206.895C775.962 200.891 777.349 196.092 778.863 192.817C779.621 191.177 780.388 189.971 781.135 189.188C781.883 188.406 782.53 188.125 783.078 188.125C783.625 188.126 784.273 188.406 785.02 189.188C785.768 189.971 786.534 191.177 787.292 192.817C788.805 196.092 790.192 200.89 791.366 206.895C793.71 218.888 795.166 235.498 795.167 253.874C795.167 272.249 793.71 288.86 791.366 300.853C790.192 306.858 788.805 311.657 787.292 314.931C786.534 316.571 785.768 317.777 785.02 318.56C784.273 319.342 783.625 319.622 783.078 319.622Z" stroke="url(#paint8_linear_515_2)" style="mix-blend-mode:plus-lighter" stroke-width="1.89561"/>
</g>
<g filter="url(#filter5_d_515_2)">
<path d="M799.789 184.956C799.789 184.956 787.048 196.909 787.048 253.824C787.048 310.74 799.789 322.123 799.789 322.123L903.866 338.728C903.165 337.449 902.55 335.984 902.003 334.413C900.392 329.786 898.99 323.255 897.829 315.371C895.5 299.556 894.07 277.798 894.07 253.824C894.07 229.851 895.5 208.093 897.829 192.277C898.99 184.394 900.392 177.863 902.003 173.236C902.642 171.402 903.366 169.711 904.22 168.294L799.789 184.956Z" fill="url(#paint9_linear_515_2)"/>
<path d="M800.26 185.84C800.188 185.923 800.095 186.032 799.984 186.171C799.663 186.574 799.189 187.228 798.613 188.198C797.46 190.137 795.896 193.341 794.323 198.332C791.175 208.316 787.997 225.433 787.997 253.825C787.997 282.217 791.175 299.189 794.322 309.029C795.894 313.947 797.457 317.078 798.607 318.961C799.182 319.903 799.655 320.534 799.973 320.92C800.083 321.054 800.176 321.158 800.248 321.236L902.204 337.502C901.808 336.621 901.444 335.688 901.108 334.724C899.468 330.014 898.055 323.415 896.891 315.509C894.553 299.636 893.123 277.829 893.123 253.825C893.123 229.82 894.553 208.013 896.891 192.139C898.055 184.234 899.468 177.634 901.108 172.924C901.522 171.735 901.978 170.59 902.486 169.53L800.26 185.84Z" stroke="url(#paint10_linear_515_2)" style="mix-blend-mode:plus-lighter" stroke-width="1.89561"/>
</g>
<g filter="url(#filter6_d_515_2)">
<path d="M923.335 166.287C923.335 166.287 910.481 181.494 910.481 253.911C910.481 326.327 923.335 340.81 923.335 340.81L1028.33 361.937C1027.63 360.31 1027.01 358.446 1026.45 356.446C1024.83 350.559 1023.41 342.249 1022.24 332.219C1019.89 312.097 1018.45 284.413 1018.45 253.911C1018.45 223.409 1019.89 195.724 1022.24 175.602C1023.41 165.572 1024.83 157.262 1026.45 151.375C1027.1 149.041 1027.83 146.89 1028.69 145.087L923.335 166.287Z" fill="url(#paint11_linear_515_2)"/>
<path d="M923.879 167.144C923.803 167.253 923.703 167.399 923.584 167.587C923.255 168.11 922.771 168.953 922.184 170.199C921.009 172.691 919.422 176.796 917.828 183.172C914.639 195.929 911.429 217.754 911.429 253.911C911.429 290.068 914.638 311.71 917.827 324.284C919.42 330.569 921.007 334.58 922.179 337.002C922.765 338.213 923.248 339.027 923.576 339.528C923.694 339.708 923.793 339.847 923.869 339.951L1026.8 360.662C1026.34 359.419 1025.92 358.087 1025.54 356.699C1023.9 350.743 1022.47 342.377 1021.3 332.33C1018.95 312.161 1017.5 284.438 1017.5 253.911C1017.5 223.384 1018.95 195.661 1021.3 175.492C1022.47 165.445 1023.9 157.079 1025.54 151.123C1026 149.44 1026.52 147.835 1027.1 146.374L923.879 167.144Z" stroke="url(#paint12_linear_515_2)" style="mix-blend-mode:plus-lighter" stroke-width="1.89561"/>
</g>
<g filter="url(#filter7_d_515_2)">
<path d="M892.768 253.876C892.768 301.071 898.605 339.33 905.805 339.33C913.005 339.33 918.842 301.071 918.842 253.876C918.842 206.681 913.005 168.421 905.805 168.421C898.605 168.421 892.768 206.681 892.768 253.876Z" fill="url(#paint13_linear_515_2)"/>
<path d="M905.805 169.37C905.356 169.37 904.722 169.671 903.937 170.724C903.169 171.754 902.388 173.334 901.622 175.458C900.093 179.697 898.699 185.884 897.523 193.593C895.173 208.997 893.715 230.311 893.715 253.875C893.715 277.44 895.173 298.754 897.523 314.158C898.699 321.867 900.093 328.054 901.622 332.292C902.388 334.417 903.169 335.997 903.937 337.027C904.722 338.08 905.356 338.382 905.805 338.382C906.255 338.382 906.887 338.08 907.672 337.027C908.44 335.997 909.221 334.418 909.988 332.292C911.517 328.054 912.91 321.867 914.086 314.158C916.436 298.754 917.894 277.44 917.894 253.875C917.894 230.311 916.436 208.997 914.086 193.593C912.91 185.884 911.517 179.697 909.988 175.458C909.221 173.333 908.44 171.754 907.672 170.724C906.887 169.671 906.255 169.37 905.805 169.37Z" stroke="url(#paint14_linear_515_2)" style="mix-blend-mode:plus-lighter" stroke-width="1.89561"/>
</g>
<g filter="url(#filter8_d_515_2)">
<path d="M1048.9 141.859C1048.9 141.859 1032.59 161.214 1032.59 253.384C1032.59 345.553 1048.9 363.987 1048.9 363.987L1182.13 390.876C1181.24 388.806 1180.45 386.433 1179.75 383.888C1177.69 376.396 1175.89 365.819 1174.4 353.053C1171.42 327.442 1169.59 292.206 1169.59 253.384C1169.59 214.561 1171.42 179.326 1174.4 153.715C1175.89 140.948 1177.69 130.372 1179.75 122.879C1180.57 119.909 1181.49 117.171 1182.59 114.876L1048.9 141.859Z" fill="url(#paint15_linear_515_2)"/>
<path d="M1049.44 142.715C1049.33 142.863 1049.18 143.08 1049 143.375C1048.57 144.049 1047.95 145.131 1047.21 146.726C1045.71 149.916 1043.69 155.157 1041.66 163.287C1037.61 179.55 1033.53 207.35 1033.53 253.383C1033.53 299.417 1037.61 326.986 1041.66 343.017C1043.69 351.03 1045.7 356.153 1047.2 359.254C1047.95 360.805 1048.57 361.85 1048.99 362.498C1049.17 362.78 1049.32 362.986 1049.43 363.126L1180.59 389.598C1179.95 387.904 1179.36 386.065 1178.83 384.14C1176.75 376.578 1174.95 365.946 1173.46 353.163C1170.48 327.505 1168.65 292.23 1168.65 253.383C1168.65 214.537 1170.48 179.263 1173.46 153.605C1174.95 140.822 1176.75 130.189 1178.83 122.627C1179.47 120.319 1180.18 118.131 1180.98 116.167L1049.44 142.715Z" stroke="url(#paint16_linear_515_2)" style="mix-blend-mode:plus-lighter" stroke-width="1.89561"/>
</g>
<g filter="url(#filter9_d_515_2)">
<path d="M298.695 253.877C298.695 193.394 292.892 144.364 285.733 144.364C278.575 144.364 272.772 193.394 272.772 253.877C272.772 314.359 278.575 363.389 285.733 363.389C292.892 363.389 298.695 314.359 298.695 253.877Z" fill="url(#paint17_linear_515_2)"/>
<path d="M285.734 362.441C285.892 362.441 286.124 362.377 286.442 362.104C286.767 361.825 287.133 361.368 287.525 360.69C288.31 359.333 289.098 357.271 289.866 354.528C291.397 349.056 292.787 341.094 293.958 331.203C296.297 311.432 297.748 284.092 297.748 253.876C297.748 223.661 296.297 196.322 293.957 176.551C292.787 166.66 291.397 158.697 289.866 153.225C289.098 150.482 288.31 148.42 287.525 147.063C287.133 146.385 286.767 145.928 286.442 145.649C286.124 145.376 285.892 145.312 285.734 145.312C285.576 145.312 285.344 145.376 285.026 145.649C284.701 145.928 284.334 146.385 283.942 147.063C283.157 148.42 282.369 150.482 281.601 153.225C280.07 158.697 278.68 166.66 277.509 176.551C275.169 196.322 273.72 223.661 273.72 253.876C273.72 284.092 275.169 311.432 277.509 331.203C278.68 341.094 280.07 349.056 281.601 354.528C282.369 357.271 283.157 359.333 283.942 360.69C284.334 361.368 284.701 361.825 285.026 362.104C285.344 362.377 285.576 362.441 285.734 362.441Z" stroke="url(#paint18_linear_515_2)" style="mix-blend-mode:plus-lighter" stroke-width="1.89561"/>
</g>
<g filter="url(#filter10_d_515_2)">
<path d="M147.876 253.876C147.876 177.109 140.489 114.876 131.376 114.876C122.264 114.876 114.876 177.109 114.876 253.876C114.876 330.644 122.264 392.876 131.376 392.876C140.489 392.876 147.876 330.644 147.876 253.876Z" fill="url(#paint19_linear_515_2)"/>
<path d="M131.376 391.928C131.658 391.928 132.01 391.813 132.448 391.439C132.891 391.059 133.375 390.451 133.882 389.577C134.897 387.827 135.907 385.186 136.886 381.697C138.841 374.733 140.612 364.612 142.103 352.052C145.083 326.946 146.928 292.235 146.928 253.876C146.928 215.518 145.083 180.807 142.103 155.701C140.612 143.141 138.84 133.02 136.886 126.056C135.907 122.567 134.897 119.926 133.882 118.176C133.375 117.302 132.891 116.694 132.448 116.314C132.01 115.94 131.658 115.825 131.376 115.825C131.095 115.825 130.742 115.94 130.305 116.314C129.861 116.694 129.378 117.302 128.871 118.176C127.856 119.926 126.846 122.567 125.867 126.056C123.912 133.02 122.142 143.141 120.651 155.701C117.671 180.807 115.825 215.518 115.825 253.876C115.825 292.235 117.671 326.946 120.651 352.052C122.142 364.612 123.912 374.733 125.867 381.697C126.846 385.186 127.856 387.827 128.871 389.577C129.378 390.451 129.861 391.059 130.305 391.439C130.742 391.813 131.095 391.928 131.376 391.928Z" stroke="url(#paint20_linear_515_2)" style="mix-blend-mode:plus-lighter" stroke-width="1.89561"/>
</g>
<g filter="url(#filter11_d_515_2)">
<path d="M638.973 200.172C638.973 200.172 651.69 209.49 651.69 253.862C651.69 298.234 638.973 307.108 638.973 307.108L535.082 320.053C535.781 319.057 536.395 317.914 536.941 316.689C538.549 313.082 539.949 307.99 541.108 301.844C543.433 289.515 544.86 272.552 544.86 253.862C544.86 235.173 543.433 218.209 541.108 205.88C539.949 199.734 538.549 194.642 536.941 191.035C536.304 189.605 535.581 188.287 534.728 187.183L638.973 200.172Z" fill="url(#paint21_linear_515_2)"/>
<path d="M638.579 201.077C638.65 201.141 638.743 201.226 638.855 201.336C639.17 201.645 639.637 202.148 640.206 202.896C641.343 204.39 642.892 206.867 644.453 210.732C647.575 218.467 650.743 231.763 650.743 253.862C650.743 275.963 647.575 289.145 644.455 296.766C642.895 300.574 641.348 302.993 640.213 304.444C639.646 305.17 639.181 305.656 638.868 305.952C638.755 306.059 638.661 306.14 638.589 306.2L536.923 318.869C537.238 318.292 537.532 317.692 537.807 317.075C539.459 313.37 540.875 308.195 542.04 302.021C544.378 289.617 545.808 272.592 545.808 253.862C545.808 235.132 544.378 218.107 542.04 205.704C540.875 199.529 539.459 194.355 537.807 190.649C537.456 189.863 537.074 189.1 536.657 188.378L638.579 201.077Z" stroke="url(#paint22_linear_515_2)" style="mix-blend-mode:plus-lighter" stroke-width="1.89561"/>
</g>
<g filter="url(#filter12_d_515_2)">
<path d="M546.422 253.879C546.422 290.714 540.585 320.574 533.384 320.574C526.184 320.574 520.347 290.714 520.347 253.879C520.347 217.043 526.184 187.183 533.384 187.183C540.585 187.183 546.422 217.043 546.422 253.879Z" fill="url(#paint23_linear_515_2)"/>
<path d="M533.384 188.131C533.931 188.131 534.579 188.41 535.327 189.192C536.074 189.975 536.841 191.181 537.599 192.821C539.112 196.096 540.5 200.895 541.673 206.899C544.018 218.893 545.474 235.503 545.474 253.879C545.474 272.254 544.018 288.864 541.673 300.857C540.5 306.862 539.112 311.661 537.599 314.936C536.841 316.575 536.074 317.782 535.327 318.564C534.579 319.347 533.931 319.627 533.384 319.627C532.837 319.627 532.189 319.347 531.442 318.564C530.694 317.782 529.928 316.575 529.17 314.936C527.657 311.661 526.27 306.862 525.096 300.857C522.752 288.864 521.295 272.254 521.295 253.879C521.295 235.503 522.752 218.893 525.096 206.899C526.27 200.895 527.657 196.096 529.17 192.821C529.928 191.182 530.694 189.975 531.442 189.192C532.189 188.41 532.837 188.131 533.384 188.131Z" stroke="url(#paint24_linear_515_2)" style="mix-blend-mode:plus-lighter" stroke-width="1.89561"/>
</g>
<g filter="url(#filter13_d_515_2)">
<path d="M516.674 322.796C516.674 322.796 529.414 310.843 529.414 253.928C529.414 197.012 516.674 185.629 516.674 185.629L412.597 169.024C413.298 170.303 413.913 171.768 414.46 173.339C416.071 177.966 417.473 184.497 418.634 192.381C420.963 208.196 422.393 229.954 422.393 253.928C422.393 277.901 420.963 299.659 418.634 315.474C417.473 323.358 416.071 329.889 414.46 334.516C413.821 336.35 413.097 338.041 412.243 339.458L516.674 322.796Z" fill="url(#paint25_linear_515_2)"/>
<path d="M516.203 321.912C516.275 321.829 516.368 321.72 516.479 321.581C516.8 321.178 517.274 320.524 517.85 319.554C519.003 317.615 520.567 314.41 522.14 309.42C525.288 299.436 528.466 282.319 528.466 253.927C528.466 225.535 525.288 208.563 522.141 198.723C520.568 193.805 519.006 190.674 517.856 188.791C517.281 187.849 516.808 187.218 516.49 186.832C516.38 186.698 516.287 186.594 516.215 186.516L414.259 170.25C414.655 171.131 415.019 172.064 415.355 173.028C416.995 177.738 418.408 184.337 419.572 192.243C421.909 208.116 423.34 229.923 423.34 253.927C423.34 277.932 421.909 299.739 419.572 315.613C418.408 323.518 416.995 330.118 415.355 334.828C414.941 336.017 414.485 337.162 413.977 338.222L516.203 321.912Z" stroke="url(#paint26_linear_515_2)" style="mix-blend-mode:plus-lighter" stroke-width="1.89561"/>
</g>
<g filter="url(#filter14_d_515_2)">
<path d="M393.127 341.465C393.127 341.465 405.981 326.258 405.981 253.841C405.981 181.425 393.127 166.942 393.127 166.942L288.13 145.815C288.837 147.442 289.457 149.306 290.009 151.306C291.634 157.193 293.049 165.502 294.22 175.533C296.57 195.655 298.012 223.339 298.012 253.841C298.012 284.343 296.57 312.028 294.22 332.15C293.049 342.18 291.634 350.49 290.009 356.377C289.364 358.711 288.634 360.862 287.772 362.665L393.127 341.465Z" fill="url(#paint27_linear_515_2)"/>
<path d="M392.583 340.608C392.659 340.499 392.759 340.353 392.877 340.165C393.207 339.642 393.691 338.799 394.278 337.553C395.452 335.06 397.04 330.956 398.634 324.58C401.823 311.823 405.033 289.998 405.033 253.841C405.033 217.684 401.823 196.042 398.635 183.468C397.042 177.183 395.455 173.172 394.283 170.75C393.697 169.539 393.214 168.725 392.886 168.224C392.768 168.044 392.669 167.905 392.593 167.801L289.659 147.09C290.119 148.333 290.539 149.665 290.922 151.053C292.567 157.009 293.988 165.375 295.162 175.422C297.517 195.591 298.959 223.314 298.959 253.841C298.959 284.368 297.517 312.091 295.162 332.26C293.988 342.307 292.567 350.673 290.922 356.629C290.458 358.312 289.942 359.917 289.361 361.378L392.583 340.608Z" stroke="url(#paint28_linear_515_2)" style="mix-blend-mode:plus-lighter" stroke-width="1.89561"/>
</g>
<g filter="url(#filter15_d_515_2)">
<path d="M423.695 253.878C423.695 206.683 417.858 168.424 410.657 168.424C403.457 168.424 397.62 206.683 397.62 253.878C397.62 301.073 403.457 339.332 410.657 339.332C417.858 339.332 423.695 301.073 423.695 253.878Z" fill="url(#paint29_linear_515_2)"/>
<path d="M410.657 338.384C411.107 338.384 411.74 338.083 412.525 337.029C413.293 335.999 414.074 334.42 414.841 332.295C416.37 328.056 417.763 321.869 418.939 314.16C421.29 298.756 422.747 277.443 422.747 253.878C422.747 230.313 421.289 208.999 418.939 193.596C417.763 185.887 416.37 179.7 414.841 175.461C414.074 173.336 413.293 171.757 412.525 170.727C411.74 169.673 411.107 169.371 410.657 169.371C410.208 169.371 409.575 169.673 408.79 170.727C408.022 171.757 407.241 173.336 406.475 175.461C404.946 179.7 403.552 185.886 402.376 193.596C400.026 208.999 398.568 230.313 398.568 253.878C398.568 277.443 400.026 298.756 402.376 314.16C403.552 321.869 404.946 328.056 406.475 332.295C407.241 334.42 408.022 335.999 408.79 337.029C409.575 338.083 410.208 338.384 410.657 338.384Z" stroke="url(#paint30_linear_515_2)" style="mix-blend-mode:plus-lighter" stroke-width="1.89561"/>
</g>
<g filter="url(#filter16_d_515_2)">
<path d="M267.566 365.894C267.566 365.894 283.876 346.539 283.876 254.369C283.876 162.2 267.566 143.766 267.566 143.766L134.33 116.876C135.227 118.947 136.014 121.32 136.715 123.865C138.777 131.357 140.572 141.934 142.059 154.7C145.04 180.311 146.87 215.547 146.87 254.369C146.87 293.191 145.04 328.427 142.059 354.038C140.572 366.805 138.777 377.381 136.715 384.874C135.897 387.844 134.971 390.582 133.876 392.876L267.566 365.894Z" fill="url(#paint31_linear_515_2)"/>
<path d="M267.025 365.038C267.13 364.89 267.279 364.673 267.464 364.378C267.888 363.704 268.508 362.622 269.257 361.027C270.756 357.836 272.775 352.596 274.801 344.466C278.855 328.203 282.928 300.403 282.928 254.37C282.928 208.336 278.855 180.767 274.802 164.736C272.776 156.723 270.758 151.6 269.261 148.499C268.513 146.948 267.895 145.903 267.473 145.255C267.289 144.973 267.141 144.767 267.037 144.626L135.872 118.155C136.517 119.849 137.098 121.688 137.628 123.613C139.71 131.174 141.512 141.807 143 154.59C145.988 180.248 147.818 215.523 147.818 254.37C147.818 293.216 145.988 328.49 143 354.148C141.512 366.931 139.71 377.564 137.628 385.125C136.993 387.434 136.285 389.622 135.479 391.586L267.025 365.038Z" stroke="url(#paint32_linear_515_2)" style="mix-blend-mode:plus-lighter" stroke-width="1.89561"/>
</g>
<g opacity="0.34" filter="url(#filter17_d_515_2)">
<path d="M652.272 253.376C652.272 282.371 643.743 306.376 638.772 306.376C633.801 306.376 631.272 282.371 631.272 253.376C631.272 224.382 633.801 200.876 638.772 200.876C643.743 200.876 652.272 224.382 652.272 253.376Z" fill="url(#paint33_linear_515_2)"/>
<path d="M638.772 201.825C639.023 201.825 639.472 201.984 640.114 202.618C640.736 203.231 641.426 204.18 642.153 205.468C643.602 208.038 645.111 211.806 646.476 216.517C649.204 225.929 651.324 238.965 651.324 253.376C651.324 267.788 649.204 280.95 646.475 290.489C645.109 295.263 643.6 299.096 642.149 301.713C641.422 303.025 640.73 303.993 640.107 304.62C639.462 305.268 639.016 305.428 638.772 305.428C638.574 305.428 638.237 305.315 637.776 304.712C637.32 304.116 636.853 303.174 636.399 301.863C635.495 299.251 634.722 295.42 634.098 290.627C632.852 281.059 632.22 267.854 632.22 253.376C632.22 238.898 632.852 225.82 634.098 216.377C634.722 211.648 635.494 207.88 636.397 205.317C636.85 204.03 637.316 203.109 637.77 202.526C638.227 201.939 638.565 201.825 638.772 201.825Z" stroke="url(#paint34_linear_515_2)" style="mix-blend-mode:plus-lighter" stroke-width="1.89561"/>
</g>
<g opacity="0.34" filter="url(#filter18_d_515_2)">
<path d="M664.272 253.876C664.272 224.882 672.801 200.876 677.772 200.876C682.743 200.876 685.272 224.882 685.272 253.876C685.272 282.871 682.743 306.376 677.772 306.376C672.801 306.376 664.272 282.871 664.272 253.876Z" fill="url(#paint35_linear_515_2)"/>
<path d="M677.772 305.428C677.521 305.428 677.072 305.269 676.43 304.635C675.808 304.022 675.118 303.073 674.391 301.785C672.941 299.215 671.433 295.446 670.068 290.736C667.34 281.324 665.22 268.288 665.22 253.876C665.22 239.465 667.34 226.303 670.069 216.764C671.435 211.99 672.944 208.157 674.395 205.54C675.122 204.228 675.814 203.26 676.437 202.633C677.082 201.985 677.528 201.825 677.772 201.825C677.97 201.825 678.307 201.938 678.768 202.541C679.224 203.137 679.691 204.079 680.145 205.39C681.049 208.002 681.822 211.833 682.446 216.625C683.692 226.194 684.324 239.399 684.324 253.876C684.324 268.354 683.692 281.433 682.446 290.875C681.822 295.605 681.05 299.373 680.147 301.936C679.694 303.222 679.228 304.144 678.774 304.727C678.317 305.314 677.979 305.428 677.772 305.428Z" stroke="url(#paint36_linear_515_2)" style="mix-blend-mode:plus-lighter" stroke-width="1.89561"/>
</g>
<defs>
<filter id="filter0_d_515_2" x="522.895" y="86.9959" width="268.752" height="333.491" filterUnits="userSpaceOnUse" color-interpolation-filters="sRGB">
<feFlood flood-opacity="0" result="BackgroundImageFix"/>
<feColorMatrix in="SourceAlpha" type="matrix" values="0 0 0 0 0 0 0 0 0 0 0 0 0 0 0 0 0 0 127 0" result="hardAlpha"/>
<feOffset/>
<feGaussianBlur stdDeviation="57.4384"/>
<feColorMatrix type="matrix" values="0 0 0 0 1 0 0 0 0 0.0662185 0 0 0 0 0.0662185 0 0 0 0.6 0"/>
<feBlend mode="normal" in2="BackgroundImageFix" result="effect1_dropShadow_515_2"/>
<feBlend mode="normal" in="SourceGraphic" in2="effect1_dropShadow_515_2" result="shape"/>
</filter>
<filter id="filter1_d_515_2" x="902.89" y="29.488" width="255.676" height="448.779" filterUnits="userSpaceOnUse" color-interpolation-filters="sRGB">
<feFlood flood-opacity="0" result="BackgroundImageFix"/>
<feColorMatrix in="SourceAlpha" type="matrix" values="0 0 0 0 0 0 0 0 0 0 0 0 0 0 0 0 0 0 127 0" result="hardAlpha"/>
<feOffset/>
<feGaussianBlur stdDeviation="57.4384"/>
<feColorMatrix type="matrix" values="0 0 0 0 1 0 0 0 0 0.0662185 0 0 0 0 0.0662185 0 0 0 0.6 0"/>
<feBlend mode="normal" in2="BackgroundImageFix" result="effect1_dropShadow_515_2"/>
<feBlend mode="normal" in="SourceGraphic" in2="effect1_dropShadow_515_2" result="shape"/>
</filter>
<filter id="filter2_d_515_2" x="1053.71" y="-0.000236511" width="262.753" height="507.753" filterUnits="userSpaceOnUse" color-interpolation-filters="sRGB">
<feFlood flood-opacity="0" result="BackgroundImageFix"/>
<feColorMatrix in="SourceAlpha" type="matrix" values="0 0 0 0 0 0 0 0 0 0 0 0 0 0 0 0 0 0 127 0" result="hardAlpha"/>
<feOffset/>
<feGaussianBlur stdDeviation="57.4384"/>
<feColorMatrix type="matrix" values="0 0 0 0 1 0 0 0 0 0.0662185 0 0 0 0 0.0662185 0 0 0 0.6 0"/>
<feBlend mode="normal" in2="BackgroundImageFix" result="effect1_dropShadow_515_2"/>
<feBlend mode="normal" in="SourceGraphic" in2="effect1_dropShadow_515_2" result="shape"/>
</filter>
<filter id="filter3_d_515_2" x="549.895" y="72.8225" width="346.715" height="362.624" filterUnits="userSpaceOnUse" color-interpolation-filters="sRGB">
<feFlood flood-opacity="0" result="BackgroundImageFix"/>
<feColorMatrix in="SourceAlpha" type="matrix" values="0 0 0 0 0 0 0 0 0 0 0 0 0 0 0 0 0 0 127 0" result="hardAlpha"/>
<feOffset/>
<feGaussianBlur stdDeviation="57.4384"/>
<feColorMatrix type="matrix" values="0 0 0 0 1 0 0 0 0 0.0662185 0 0 0 0 0.0662185 0 0 0 0.6 0"/>
<feBlend mode="normal" in2="BackgroundImageFix" result="effect1_dropShadow_515_2"/>
<feBlend mode="normal" in="SourceGraphic" in2="effect1_dropShadow_515_2" result="shape"/>
</filter>
<filter id="filter4_d_515_2" x="655.164" y="72.301" width="255.828" height="363.145" filterUnits="userSpaceOnUse" color-interpolation-filters="sRGB">
<feFlood flood-opacity="0" result="BackgroundImageFix"/>
<feColorMatrix in="SourceAlpha" type="matrix" values="0 0 0 0 0 0 0 0 0 0 0 0 0 0 0 0 0 0 127 0" result="hardAlpha"/>
<feOffset/>
<feGaussianBlur stdDeviation="57.4384"/>
<feColorMatrix type="matrix" values="0 0 0 0 1 0 0 0 0 0.0662185 0 0 0 0 0.0662185 0 0 0 0.6 0"/>
<feBlend mode="normal" in2="BackgroundImageFix" result="effect1_dropShadow_515_2"/>
<feBlend mode="normal" in="SourceGraphic" in2="effect1_dropShadow_515_2" result="shape"/>
</filter>
<filter id="filter5_d_515_2" x="672.172" y="53.4177" width="346.925" height="400.187" filterUnits="userSpaceOnUse" color-interpolation-filters="sRGB">
<feFlood flood-opacity="0" result="BackgroundImageFix"/>
<feColorMatrix in="SourceAlpha" type="matrix" values="0 0 0 0 0 0 0 0 0 0 0 0 0 0 0 0 0 0 127 0" result="hardAlpha"/>
<feOffset/>
<feGaussianBlur stdDeviation="57.4384"/>
<feColorMatrix type="matrix" values="0 0 0 0 1 0 0 0 0 0.0662185 0 0 0 0 0.0662185 0 0 0 0.6 0"/>
<feBlend mode="normal" in2="BackgroundImageFix" result="effect1_dropShadow_515_2"/>
<feBlend mode="normal" in="SourceGraphic" in2="effect1_dropShadow_515_2" result="shape"/>
</filter>
<filter id="filter6_d_515_2" x="795.604" y="30.2107" width="347.962" height="446.603" filterUnits="userSpaceOnUse" color-interpolation-filters="sRGB">
<feFlood flood-opacity="0" result="BackgroundImageFix"/>
<feColorMatrix in="SourceAlpha" type="matrix" values="0 0 0 0 0 0 0 0 0 0 0 0 0 0 0 0 0 0 127 0" result="hardAlpha"/>
<feOffset/>
<feGaussianBlur stdDeviation="57.4384"/>
<feColorMatrix type="matrix" values="0 0 0 0 1 0 0 0 0 0.0662185 0 0 0 0 0.0662185 0 0 0 0.6 0"/>
<feBlend mode="normal" in2="BackgroundImageFix" result="effect1_dropShadow_515_2"/>
<feBlend mode="normal" in="SourceGraphic" in2="effect1_dropShadow_515_2" result="shape"/>
</filter>
<filter id="filter7_d_515_2" x="777.891" y="53.5447" width="255.828" height="400.662" filterUnits="userSpaceOnUse" color-interpolation-filters="sRGB">
<feFlood flood-opacity="0" result="BackgroundImageFix"/>
<feColorMatrix in="SourceAlpha" type="matrix" values="0 0 0 0 0 0 0 0 0 0 0 0 0 0 0 0 0 0 127 0" result="hardAlpha"/>
<feOffset/>
<feGaussianBlur stdDeviation="57.4384"/>
<feColorMatrix type="matrix" values="0 0 0 0 1 0 0 0 0 0.0662185 0 0 0 0 0.0662185 0 0 0 0.6 0"/>
<feBlend mode="normal" in2="BackgroundImageFix" result="effect1_dropShadow_515_2"/>
<feBlend mode="normal" in="SourceGraphic" in2="effect1_dropShadow_515_2" result="shape"/>
</filter>
<filter id="filter8_d_515_2" x="917.71" y="-0.000236511" width="379.753" height="505.753" filterUnits="userSpaceOnUse" color-interpolation-filters="sRGB">
<feFlood flood-opacity="0" result="BackgroundImageFix"/>
<feColorMatrix in="SourceAlpha" type="matrix" values="0 0 0 0 0 0 0 0 0 0 0 0 0 0 0 0 0 0 127 0" result="hardAlpha"/>
<feOffset/>
<feGaussianBlur stdDeviation="57.4384"/>
<feColorMatrix type="matrix" values="0 0 0 0 1 0 0 0 0 0.0662185 0 0 0 0 0.0662185 0 0 0 0.6 0"/>
<feBlend mode="normal" in2="BackgroundImageFix" result="effect1_dropShadow_515_2"/>
<feBlend mode="normal" in="SourceGraphic" in2="effect1_dropShadow_515_2" result="shape"/>
</filter>
<filter id="filter9_d_515_2" x="157.895" y="29.4871" width="255.676" height="448.779" filterUnits="userSpaceOnUse" color-interpolation-filters="sRGB">
<feFlood flood-opacity="0" result="BackgroundImageFix"/>
<feColorMatrix in="SourceAlpha" type="matrix" values="0 0 0 0 0 0 0 0 0 0 0 0 0 0 0 0 0 0 127 0" result="hardAlpha"/>
<feOffset/>
<feGaussianBlur stdDeviation="57.4384"/>
<feColorMatrix type="matrix" values="0 0 0 0 1 0 0 0 0 0.0662185 0 0 0 0 0.0662185 0 0 0 0.6 0"/>
<feBlend mode="normal" in2="BackgroundImageFix" result="effect1_dropShadow_515_2"/>
<feBlend mode="normal" in="SourceGraphic" in2="effect1_dropShadow_515_2" result="shape"/>
</filter>
<filter id="filter10_d_515_2" x="-0.000236511" y="-0.000236511" width="262.753" height="507.753" filterUnits="userSpaceOnUse" color-interpolation-filters="sRGB">
<feFlood flood-opacity="0" result="BackgroundImageFix"/>
<feColorMatrix in="SourceAlpha" type="matrix" values="0 0 0 0 0 0 0 0 0 0 0 0 0 0 0 0 0 0 127 0" result="hardAlpha"/>
<feOffset/>
<feGaussianBlur stdDeviation="57.4384"/>
<feColorMatrix type="matrix" values="0 0 0 0 1 0 0 0 0 0.0662185 0 0 0 0 0.0662185 0 0 0 0.6 0"/>
<feBlend mode="normal" in2="BackgroundImageFix" result="effect1_dropShadow_515_2"/>
<feBlend mode="normal" in="SourceGraphic" in2="effect1_dropShadow_515_2" result="shape"/>
</filter>
<filter id="filter11_d_515_2" x="419.851" y="72.3059" width="346.716" height="362.624" filterUnits="userSpaceOnUse" color-interpolation-filters="sRGB">
<feFlood flood-opacity="0" result="BackgroundImageFix"/>
<feColorMatrix in="SourceAlpha" type="matrix" values="0 0 0 0 0 0 0 0 0 0 0 0 0 0 0 0 0 0 127 0" result="hardAlpha"/>
<feOffset/>
<feGaussianBlur stdDeviation="57.4384"/>
<feColorMatrix type="matrix" values="0 0 0 0 1 0 0 0 0 0.0662185 0 0 0 0 0.0662185 0 0 0 0.6 0"/>
<feBlend mode="normal" in2="BackgroundImageFix" result="effect1_dropShadow_515_2"/>
<feBlend mode="normal" in="SourceGraphic" in2="effect1_dropShadow_515_2" result="shape"/>
</filter>
<filter id="filter12_d_515_2" x="405.47" y="72.3059" width="255.828" height="363.145" filterUnits="userSpaceOnUse" color-interpolation-filters="sRGB">
<feFlood flood-opacity="0" result="BackgroundImageFix"/>
<feColorMatrix in="SourceAlpha" type="matrix" values="0 0 0 0 0 0 0 0 0 0 0 0 0 0 0 0 0 0 127 0" result="hardAlpha"/>
<feOffset/>
<feGaussianBlur stdDeviation="57.4384"/>
<feColorMatrix type="matrix" values="0 0 0 0 1 0 0 0 0 0.0662185 0 0 0 0 0.0662185 0 0 0 0.6 0"/>
<feBlend mode="normal" in2="BackgroundImageFix" result="effect1_dropShadow_515_2"/>
<feBlend mode="normal" in="SourceGraphic" in2="effect1_dropShadow_515_2" result="shape"/>
</filter>
<filter id="filter13_d_515_2" x="297.366" y="54.1472" width="346.925" height="400.187" filterUnits="userSpaceOnUse" color-interpolation-filters="sRGB">
<feFlood flood-opacity="0" result="BackgroundImageFix"/>
<feColorMatrix in="SourceAlpha" type="matrix" values="0 0 0 0 0 0 0 0 0 0 0 0 0 0 0 0 0 0 127 0" result="hardAlpha"/>
<feOffset/>
<feGaussianBlur stdDeviation="57.4384"/>
<feColorMatrix type="matrix" values="0 0 0 0 1 0 0 0 0 0.0662185 0 0 0 0 0.0662185 0 0 0 0.6 0"/>
<feBlend mode="normal" in2="BackgroundImageFix" result="effect1_dropShadow_515_2"/>
<feBlend mode="normal" in="SourceGraphic" in2="effect1_dropShadow_515_2" result="shape"/>
</filter>
<filter id="filter14_d_515_2" x="172.895" y="30.9382" width="347.962" height="446.603" filterUnits="userSpaceOnUse" color-interpolation-filters="sRGB">
<feFlood flood-opacity="0" result="BackgroundImageFix"/>
<feColorMatrix in="SourceAlpha" type="matrix" values="0 0 0 0 0 0 0 0 0 0 0 0 0 0 0 0 0 0 127 0" result="hardAlpha"/>
<feOffset/>
<feGaussianBlur stdDeviation="57.4384"/>
<feColorMatrix type="matrix" values="0 0 0 0 1 0 0 0 0 0.0662185 0 0 0 0 0.0662185 0 0 0 0.6 0"/>
<feBlend mode="normal" in2="BackgroundImageFix" result="effect1_dropShadow_515_2"/>
<feBlend mode="normal" in="SourceGraphic" in2="effect1_dropShadow_515_2" result="shape"/>
</filter>
<filter id="filter15_d_515_2" x="282.743" y="53.5471" width="255.828" height="400.662" filterUnits="userSpaceOnUse" color-interpolation-filters="sRGB">
<feFlood flood-opacity="0" result="BackgroundImageFix"/>
<feColorMatrix in="SourceAlpha" type="matrix" values="0 0 0 0 0 0 0 0 0 0 0 0 0 0 0 0 0 0 127 0" result="hardAlpha"/>
<feOffset/>
<feGaussianBlur stdDeviation="57.4384"/>
<feColorMatrix type="matrix" values="0 0 0 0 1 0 0 0 0 0.0662185 0 0 0 0 0.0662185 0 0 0 0.6 0"/>
<feBlend mode="normal" in2="BackgroundImageFix" result="effect1_dropShadow_515_2"/>
<feBlend mode="normal" in="SourceGraphic" in2="effect1_dropShadow_515_2" result="shape"/>
</filter>
<filter id="filter16_d_515_2" x="18.9998" y="1.99976" width="379.753" height="505.753" filterUnits="userSpaceOnUse" color-interpolation-filters="sRGB">
<feFlood flood-opacity="0" result="BackgroundImageFix"/>
<feColorMatrix in="SourceAlpha" type="matrix" values="0 0 0 0 0 0 0 0 0 0 0 0 0 0 0 0 0 0 127 0" result="hardAlpha"/>
<feOffset/>
<feGaussianBlur stdDeviation="57.4384"/>
<feColorMatrix type="matrix" values="0 0 0 0 1 0 0 0 0 0.0662185 0 0 0 0 0.0662185 0 0 0 0.6 0"/>
<feBlend mode="normal" in2="BackgroundImageFix" result="effect1_dropShadow_515_2"/>
<feBlend mode="normal" in="SourceGraphic" in2="effect1_dropShadow_515_2" result="shape"/>
</filter>
<filter id="filter17_d_515_2" x="516.395" y="85.9998" width="250.753" height="335.253" filterUnits="userSpaceOnUse" color-interpolation-filters="sRGB">
<feFlood flood-opacity="0" result="BackgroundImageFix"/>
<feColorMatrix in="SourceAlpha" type="matrix" values="0 0 0 0 0 0 0 0 0 0 0 0 0 0 0 0 0 0 127 0" result="hardAlpha"/>
<feOffset/>
<feGaussianBlur stdDeviation="57.4384"/>
<feColorMatrix type="matrix" values="0 0 0 0 1 0 0 0 0 0.0662185 0 0 0 0 0.0662185 0 0 0 0.6 0"/>
<feBlend mode="normal" in2="BackgroundImageFix" result="effect1_dropShadow_515_2"/>
<feBlend mode="normal" in="SourceGraphic" in2="effect1_dropShadow_515_2" result="shape"/>
</filter>
<filter id="filter18_d_515_2" x="549.395" y="85.9998" width="250.753" height="335.253" filterUnits="userSpaceOnUse" color-interpolation-filters="sRGB">
<feFlood flood-opacity="0" result="BackgroundImageFix"/>
<feColorMatrix in="SourceAlpha" type="matrix" values="0 0 0 0 0 0 0 0 0 0 0 0 0 0 0 0 0 0 127 0" result="hardAlpha"/>
<feOffset/>
<feGaussianBlur stdDeviation="57.4384"/>
<feColorMatrix type="matrix" values="0 0 0 0 1 0 0 0 0 0.0662185 0 0 0 0 0.0662185 0 0 0 0.6 0"/>
<feBlend mode="normal" in2="BackgroundImageFix" result="effect1_dropShadow_515_2"/>
<feBlend mode="normal" in="SourceGraphic" in2="effect1_dropShadow_515_2" result="shape"/>
</filter>
<linearGradient id="paint0_linear_515_2" x1="673.375" y1="201.873" x2="630.729" y2="204.851" gradientUnits="userSpaceOnUse">
<stop stop-color="#FF0000" stop-opacity="0.5"/>
<stop offset="1" stop-color="#F83535" stop-opacity="0.3"/>
</linearGradient>
<linearGradient id="paint1_linear_515_2" x1="1017.77" y1="144.365" x2="1048.95" y2="145.116" gradientUnits="userSpaceOnUse">
<stop stop-color="#FF0000" stop-opacity="0.5"/>
<stop offset="1" stop-color="#F83535" stop-opacity="0.3"/>
</linearGradient>
<linearGradient id="paint2_linear_515_2" x1="1017.78" y1="144.34" x2="1076.62" y2="153.582" gradientUnits="userSpaceOnUse">
<stop stop-color="#E50914"/>
<stop offset="1" stop-color="#FF7F86" stop-opacity="0"/>
</linearGradient>
<linearGradient id="paint3_linear_515_2" x1="1168.59" y1="114.876" x2="1208.28" y2="115.835" gradientUnits="userSpaceOnUse">
<stop stop-color="#FF0000" stop-opacity="0.5"/>
<stop offset="1" stop-color="#F83535" stop-opacity="0.3"/>
</linearGradient>
<linearGradient id="paint4_linear_515_2" x1="1168.61" y1="114.845" x2="1243.5" y2="126.643" gradientUnits="userSpaceOnUse">
<stop stop-color="#E50914"/>
<stop offset="1" stop-color="#FF7F86" stop-opacity="0"/>
</linearGradient>
<linearGradient id="paint5_linear_515_2" x1="664.771" y1="320.57" x2="801.158" y2="296.141" gradientUnits="userSpaceOnUse">
<stop stop-color="#FF0000" stop-opacity="0.5"/>
<stop offset="1" stop-color="#F83535" stop-opacity="0.3"/>
</linearGradient>
<linearGradient id="paint6_linear_515_2" x1="664.849" y1="320.585" x2="779.876" y2="186.2" gradientUnits="userSpaceOnUse">
<stop stop-color="#E50914"/>
<stop offset="1" stop-color="#FF7F86" stop-opacity="0"/>
</linearGradient>
<linearGradient id="paint7_linear_515_2" x1="770.04" y1="320.57" x2="801.371" y2="319.324" gradientUnits="userSpaceOnUse">
<stop stop-color="#FF0000" stop-opacity="0.5"/>
<stop offset="1" stop-color="#F83535" stop-opacity="0.3"/>
</linearGradient>
<linearGradient id="paint8_linear_515_2" x1="770.058" y1="320.585" x2="826.877" y2="305.845" gradientUnits="userSpaceOnUse">
<stop stop-color="#E50914"/>
<stop offset="1" stop-color="#FF7F86" stop-opacity="0"/>
</linearGradient>
<linearGradient id="paint9_linear_515_2" x1="787.048" y1="168.294" x2="925.356" y2="187.642" gradientUnits="userSpaceOnUse">
<stop stop-color="#FF0000" stop-opacity="0.5"/>
<stop offset="1" stop-color="#F83535" stop-opacity="0.3"/>
</linearGradient>
<linearGradient id="paint10_linear_515_2" x1="787.126" y1="168.275" x2="935.835" y2="303.963" gradientUnits="userSpaceOnUse">
<stop stop-color="#E50914"/>
<stop offset="1" stop-color="#FF7F86" stop-opacity="0"/>
</linearGradient>
<linearGradient id="paint11_linear_515_2" x1="910.481" y1="145.087" x2="1051.01" y2="160.675" gradientUnits="userSpaceOnUse">
<stop stop-color="#FF0000" stop-opacity="0.5"/>
<stop offset="1" stop-color="#F83535" stop-opacity="0.3"/>
</linearGradient>
<linearGradient id="paint12_linear_515_2" x1="910.559" y1="145.063" x2="1091.03" y2="275.626" gradientUnits="userSpaceOnUse">
<stop stop-color="#E50914"/>
<stop offset="1" stop-color="#FF7F86" stop-opacity="0"/>
</linearGradient>
<linearGradient id="paint13_linear_515_2" x1="892.768" y1="168.421" x2="924.118" y2="169.395" gradientUnits="userSpaceOnUse">
<stop stop-color="#FF0000" stop-opacity="0.5"/>
<stop offset="1" stop-color="#F83535" stop-opacity="0.3"/>
</linearGradient>
<linearGradient id="paint14_linear_515_2" x1="892.785" y1="168.402" x2="951.04" y2="180.197" gradientUnits="userSpaceOnUse">
<stop stop-color="#E50914"/>
<stop offset="1" stop-color="#FF7F86" stop-opacity="0"/>
</linearGradient>
<linearGradient id="paint15_linear_515_2" x1="1032.59" y1="114.876" x2="1210.93" y2="134.599" gradientUnits="userSpaceOnUse">
<stop stop-color="#FF0000" stop-opacity="0.5"/>
<stop offset="1" stop-color="#F83535" stop-opacity="0.3"/>
</linearGradient>
<linearGradient id="paint16_linear_515_2" x1="1032.69" y1="114.845" x2="1262.16" y2="280.366" gradientUnits="userSpaceOnUse">
<stop stop-color="#E50914"/>
<stop offset="1" stop-color="#FF7F86" stop-opacity="0"/>
</linearGradient>
<linearGradient id="paint17_linear_515_2" x1="298.695" y1="363.389" x2="267.515" y2="362.638" gradientUnits="userSpaceOnUse">
<stop stop-color="#FF0000" stop-opacity="0.5"/>
<stop offset="1" stop-color="#F83535" stop-opacity="0.3"/>
</linearGradient>
<linearGradient id="paint18_linear_515_2" x1="298.678" y1="363.414" x2="239.839" y2="354.172" gradientUnits="userSpaceOnUse">
<stop stop-color="#E50914"/>
<stop offset="1" stop-color="#FF7F86" stop-opacity="0"/>
</linearGradient>
<linearGradient id="paint19_linear_515_2" x1="147.876" y1="392.876" x2="108.185" y2="391.918" gradientUnits="userSpaceOnUse">
<stop stop-color="#FF0000" stop-opacity="0.5"/>
<stop offset="1" stop-color="#F83535" stop-opacity="0.3"/>
</linearGradient>
<linearGradient id="paint20_linear_515_2" x1="147.855" y1="392.908" x2="72.9628" y2="381.109" gradientUnits="userSpaceOnUse">
<stop stop-color="#E50914"/>
<stop offset="1" stop-color="#FF7F86" stop-opacity="0"/>
</linearGradient>
<linearGradient id="paint21_linear_515_2" x1="651.69" y1="187.183" x2="515.304" y2="211.612" gradientUnits="userSpaceOnUse">
<stop stop-color="#FF0000" stop-opacity="0.5"/>
<stop offset="1" stop-color="#F83535" stop-opacity="0.3"/>
</linearGradient>
<linearGradient id="paint22_linear_515_2" x1="651.613" y1="187.167" x2="536.586" y2="321.553" gradientUnits="userSpaceOnUse">
<stop stop-color="#E50914"/>
<stop offset="1" stop-color="#FF7F86" stop-opacity="0"/>
</linearGradient>
<linearGradient id="paint23_linear_515_2" x1="546.422" y1="187.183" x2="515.091" y2="188.429" gradientUnits="userSpaceOnUse">
<stop stop-color="#FF0000" stop-opacity="0.5"/>
<stop offset="1" stop-color="#F83535" stop-opacity="0.3"/>
</linearGradient>
<linearGradient id="paint24_linear_515_2" x1="546.404" y1="187.167" x2="489.585" y2="201.908" gradientUnits="userSpaceOnUse">
<stop stop-color="#E50914"/>
<stop offset="1" stop-color="#FF7F86" stop-opacity="0"/>
</linearGradient>
<linearGradient id="paint25_linear_515_2" x1="529.414" y1="339.458" x2="391.107" y2="320.109" gradientUnits="userSpaceOnUse">
<stop stop-color="#FF0000" stop-opacity="0.5"/>
<stop offset="1" stop-color="#F83535" stop-opacity="0.3"/>
</linearGradient>
<linearGradient id="paint26_linear_515_2" x1="529.337" y1="339.477" x2="380.628" y2="203.789" gradientUnits="userSpaceOnUse">
<stop stop-color="#E50914"/>
<stop offset="1" stop-color="#FF7F86" stop-opacity="0"/>
</linearGradient>
<linearGradient id="paint27_linear_515_2" x1="405.981" y1="362.665" x2="265.448" y2="347.076" gradientUnits="userSpaceOnUse">
<stop stop-color="#FF0000" stop-opacity="0.5"/>
<stop offset="1" stop-color="#F83535" stop-opacity="0.3"/>
</linearGradient>
<linearGradient id="paint28_linear_515_2" x1="405.903" y1="362.689" x2="225.435" y2="232.125" gradientUnits="userSpaceOnUse">
<stop stop-color="#E50914"/>
<stop offset="1" stop-color="#FF7F86" stop-opacity="0"/>
</linearGradient>
<linearGradient id="paint29_linear_515_2" x1="423.695" y1="339.332" x2="392.345" y2="338.359" gradientUnits="userSpaceOnUse">
<stop stop-color="#FF0000" stop-opacity="0.5"/>
<stop offset="1" stop-color="#F83535" stop-opacity="0.3"/>
</linearGradient>
<linearGradient id="paint30_linear_515_2" x1="423.677" y1="339.352" x2="365.422" y2="327.556" gradientUnits="userSpaceOnUse">
<stop stop-color="#E50914"/>
<stop offset="1" stop-color="#FF7F86" stop-opacity="0"/>
</linearGradient>
<linearGradient id="paint31_linear_515_2" x1="283.876" y1="392.876" x2="105.535" y2="373.154" gradientUnits="userSpaceOnUse">
<stop stop-color="#FF0000" stop-opacity="0.5"/>
<stop offset="1" stop-color="#F83535" stop-opacity="0.3"/>
</linearGradient>
<linearGradient id="paint32_linear_515_2" x1="283.778" y1="392.908" x2="54.3013" y2="227.387" gradientUnits="userSpaceOnUse">
<stop stop-color="#E50914"/>
<stop offset="1" stop-color="#FF7F86" stop-opacity="0"/>
</linearGradient>
<linearGradient id="paint33_linear_515_2" x1="650.772" y1="200.876" x2="629.136" y2="201.631" gradientUnits="userSpaceOnUse">
<stop stop-color="#FF0000" stop-opacity="0.5"/>
<stop offset="1" stop-color="#F83535" stop-opacity="0.3"/>
</linearGradient>
<linearGradient id="paint34_linear_515_2" x1="650.76" y1="200.864" x2="610.957" y2="209.921" gradientUnits="userSpaceOnUse">
<stop stop-color="#E50914"/>
<stop offset="1" stop-color="#FF7F86" stop-opacity="0"/>
</linearGradient>
<linearGradient id="paint35_linear_515_2" x1="665.772" y1="306.376" x2="687.408" y2="305.622" gradientUnits="userSpaceOnUse">
<stop stop-color="#FF0000" stop-opacity="0.5"/>
<stop offset="1" stop-color="#F83535" stop-opacity="0.3"/>
</linearGradient>
<linearGradient id="paint36_linear_515_2" x1="665.784" y1="306.388" x2="705.587" y2="297.332" gradientUnits="userSpaceOnUse">
<stop stop-color="#E50914"/>
<stop offset="1" stop-color="#FF7F86" stop-opacity="0"/>
</linearGradient>
</defs>
</svg>
