<svg width="71" height="71" viewBox="0 0 71 71" fill="none" xmlns="http://www.w3.org/2000/svg">
  <path d="M70.0448 7.80045C70.0448 18.4664 70.0448 29.1323 70.0448 39.7982H69.8857C66.7018 39.7982 63.6771 39.7982 60.4933 39.7982C60.1749 39.7982 60.0157 39.7982 60.0157 39.3206V39.1614C60.0157 28.9731 60.0157 18.7848 60.0157 8.75561C60.0157 8.59641 60.0157 8.43722 60.0157 8.27803C60.0157 7.48206 59.5381 7.00449 58.7422 7.00449C55.5583 7.00449 52.3744 7.00449 49.0314 7.00449C48.5538 7.00449 48.3946 7.16368 48.0762 7.48206C46.3251 9.23318 44.574 10.9843 42.8229 12.7354C33.9081 21.6502 24.9933 30.565 16.0785 39.4798C15.6009 39.9574 15.4417 40.435 15.4417 41.0718C15.4417 43.1413 15.4417 45.2108 15.4417 47.4395C15.4417 48.713 15.4417 49.8274 15.4417 51.1009C15.4417 51.5785 15.6009 51.7377 16.0785 51.7377C16.2377 51.7377 16.2377 51.7377 16.3969 51.7377C27.0628 51.7377 37.7287 51.7377 48.3946 51.7377C48.5538 51.7377 48.713 51.7377 48.8722 51.7377C48.8722 51.8969 48.8722 52.0561 48.8722 52.0561C48.8722 55.3991 48.8722 58.7422 48.8722 62.0852C48.8722 62.5628 48.8722 62.5628 49.3498 62.5628C52.6928 62.5628 56.1951 62.4036 59.5381 62.4036C60.0157 62.4036 60.0157 62.4036 60.0157 61.926C60.0157 58.7422 60.0157 55.5583 59.8565 52.3744C59.8565 51.8969 59.8565 51.7377 60.4933 51.7377C63.1996 51.7377 65.9058 51.7377 68.4529 51.7377C69.0897 51.7377 69.5673 51.7377 70.204 51.7377C70.204 55.5583 70.204 59.3789 70.204 63.1996C70.204 63.5179 70.0448 63.9955 70.0448 64.3139C69.4081 68.1345 65.9058 71 62.0852 71C44.0964 71 26.2668 71 8.27803 71C7.48206 71 6.52691 70.8408 5.73094 70.5224C2.38789 69.4081 0.159193 66.2242 0.159193 62.5628C0.159193 57.787 0.159193 53.1704 0.159193 48.3946C0 35.0224 0 21.8094 0 8.43722C0 8.11883 0 7.64126 0 7.32287C0.477579 3.82063 3.02466 1.11435 6.36771 0.318386C6.84529 0.159193 7.32287 0.159193 7.80045 0C7.80045 0.159193 7.80045 0.318386 7.80045 0.477579C7.80045 3.97982 7.80045 7.48206 7.80045 11.1435C7.80045 17.6704 7.80045 24.3565 7.80045 30.8834C7.80045 31.2018 7.95964 31.5202 8.27803 31.8386C10.0291 33.4305 11.6211 35.1816 13.3722 36.9327C13.8498 37.4103 13.8498 37.4103 14.3274 36.9327C20.3767 30.8834 26.426 24.8341 32.6345 18.7848C36.4552 14.9641 40.1166 11.1435 43.9372 7.32287C44.0964 7.16368 44.0964 7.00449 44.2556 6.84529C43.9372 6.84529 43.778 6.84529 43.6188 6.84529C40.5942 6.84529 37.5695 6.84529 34.5448 6.84529C34.2265 6.84529 33.9081 7.00448 33.7489 7.16368C32.6345 7.80045 31.8386 8.75561 31.0426 9.55157C25.9484 14.6457 20.8543 19.7399 15.7601 24.8341C15.6009 24.9933 15.6009 24.9933 15.4417 25.1525C15.4417 24.6749 15.2825 24.3565 15.2825 24.0381C15.2825 19.7399 15.2825 15.4417 15.2825 11.1435C15.2825 8.27803 15.2825 5.57175 15.1233 2.70628C15.1233 1.91031 15.1233 1.11435 15.1233 0.318386C15.2825 0.159193 15.2825 0 15.6009 0H15.7601C31.0426 0 46.1659 0 61.4484 0C61.926 0 62.4036 0 62.8812 0.159193C66.2242 0.636771 68.9305 3.02466 69.7265 6.20852C69.8857 6.6861 69.8857 7.32287 70.0448 7.80045Z" fill="#E50914"/>
  <path d="M48.8722 39.7982C43.1413 39.7982 37.4104 39.7982 31.6794 39.7982C31.8386 39.3206 48.0763 23.0829 49.0314 22.6053C48.8722 28.3363 48.8722 34.0672 48.8722 39.7982Z" fill="#E50914"/>
</svg>
